<?xml version="1.0" encoding="UTF-8" standalone="no"?>
<svg
   version="1.1"
   id="svg2"
   viewBox="0 0 2671.37 608.81098"
   height="17.181999cm"
   width="75.391998cm"
   inkscape:version="1.2.2 (b0a8486541, 2022-12-01)"
   sodipodi:docname="logo.svg"
   inkscape:export-filename="/home/diego/projects@uibcdf/MolSysMT/logos/logo.png"
   inkscape:export-xdpi="96"
   inkscape:export-ydpi="96"
   xmlns:inkscape="http://www.inkscape.org/namespaces/inkscape"
   xmlns:sodipodi="http://sodipodi.sourceforge.net/DTD/sodipodi-0.dtd"
   xmlns:xlink="http://www.w3.org/1999/xlink"
   xmlns="http://www.w3.org/2000/svg"
   xmlns:svg="http://www.w3.org/2000/svg"
   xmlns:rdf="http://www.w3.org/1999/02/22-rdf-syntax-ns#"
   xmlns:cc="http://creativecommons.org/ns#"
   xmlns:dc="http://purl.org/dc/elements/1.1/">
  <sodipodi:namedview
     pagecolor="#ffffff"
     bordercolor="#666666"
     borderopacity="1"
     objecttolerance="10"
     gridtolerance="10"
     guidetolerance="10"
     inkscape:pageopacity="0"
     inkscape:pageshadow="2"
     inkscape:window-width="1920"
     inkscape:window-height="1043"
     id="namedview40"
     showgrid="false"
     fit-margin-top="1.5"
     fit-margin-left="1.5"
     fit-margin-right="1.5"
     fit-margin-bottom="1.5"
     inkscape:zoom="0.47584683"
     inkscape:cx="1590.848"
     inkscape:cy="232.21758"
     inkscape:window-x="1920"
     inkscape:window-y="0"
     inkscape:window-maximized="1"
     inkscape:current-layer="text3339"
     inkscape:pagecheckerboard="0"
     inkscape:document-units="cm"
     inkscape:showpageshadow="0"
     inkscape:deskcolor="#d1d1d1"
     showguides="true" />
  <defs
     id="defs4">
    <linearGradient
       inkscape:collect="always"
       id="linearGradient60818">
      <stop
         style="stop-color:#ffcc00;stop-opacity:1;"
         offset="0"
         id="stop60814" />
      <stop
         style="stop-color:#ffcc00;stop-opacity:0;"
         offset="1"
         id="stop60816" />
    </linearGradient>
    <linearGradient
       inkscape:collect="always"
       id="linearGradient57616">
      <stop
         style="stop-color:#ce5027;stop-opacity:1;"
         offset="0"
         id="stop57612" />
      <stop
         style="stop-color:#ce5027;stop-opacity:0;"
         offset="1"
         id="stop57614" />
    </linearGradient>
    <linearGradient
       inkscape:collect="always"
       id="linearGradient55606">
      <stop
         style="stop-color:#004082;stop-opacity:1;"
         offset="0"
         id="stop55602" />
      <stop
         style="stop-color:#004082;stop-opacity:0;"
         offset="1"
         id="stop55604" />
    </linearGradient>
    <rect
       x="222.60136"
       y="77.493637"
       width="3245.4387"
       height="971.63617"
       id="rect3341" />
    <linearGradient
       id="linearGradient5816"
       inkscape:swatch="solid">
      <stop
         id="stop5818"
         offset="0"
         style="stop-color:#0066cd;stop-opacity:1;" />
    </linearGradient>
    <linearGradient
       id="linearGradient5810"
       inkscape:swatch="solid">
      <stop
         id="stop5812"
         offset="0"
         style="stop-color:#0066cd;stop-opacity:1;" />
    </linearGradient>
    <linearGradient
       id="linearGradient5800-2"
       inkscape:swatch="solid">
      <stop
         style="stop-color:#004082;stop-opacity:0;"
         offset="0"
         id="stop5808" />
    </linearGradient>
    <linearGradient
       id="linearGradient5800">
      <stop
         id="stop5802"
         offset="0"
         style="stop-color:#004082;stop-opacity:0;" />
    </linearGradient>
    <linearGradient
       id="azul-8"
       inkscape:swatch="solid">
      <stop
         id="stop5796"
         offset="0"
         style="stop-color:#004082;stop-opacity:0;" />
    </linearGradient>
    <linearGradient
       id="linearGradient5788"
       inkscape:swatch="solid">
      <stop
         id="stop5790"
         offset="0"
         style="stop-color:#0066cd;stop-opacity:0;" />
    </linearGradient>
    <radialGradient
       inkscape:collect="always"
       xlink:href="#linearGradient55606"
       id="radialGradient55610"
       cx="70.203407"
       cy="751.98877"
       fx="70.203407"
       fy="751.98877"
       r="52.525475"
       gradientUnits="userSpaceOnUse"
       gradientTransform="matrix(1.4001391,0,0,1.4001391,-44.98406,-303.69471)" />
    <radialGradient
       inkscape:collect="always"
       xlink:href="#linearGradient57616"
       id="radialGradient57620"
       cx="1150.0629"
       cy="452.91687"
       fx="1150.0629"
       fy="452.91687"
       r="53.149605"
       gradientUnits="userSpaceOnUse"
       gradientTransform="matrix(1.4024753,0,0,1.4024753,-1559.6244,-33.148625)" />
    <radialGradient
       inkscape:collect="always"
       xlink:href="#linearGradient60818"
       id="radialGradient60820"
       cx="2447.1047"
       cy="440.59293"
       fx="2447.1047"
       fy="440.59293"
       r="52.525475"
       gradientUnits="userSpaceOnUse"
       gradientTransform="matrix(1.4028729,0,0,1.4028729,-3379.6666,-161.14302)" />
  </defs>
  <metadata
     id="metadata7">
    <rdf:RDF>
      <cc:Work
         rdf:about="">
        <dc:format>image/svg+xml</dc:format>
        <dc:type
           rdf:resource="http://purl.org/dc/dcmitype/StillImage" />
      </cc:Work>
    </rdf:RDF>
  </metadata>
  <g
     transform="translate(55.298645,-328.99084)"
     id="layer1">
    <g
       id="g70941">
      <g
         id="g71262">
        <circle
           r="73.66568"
           cy="602.05609"
           cx="53.310486"
           id="path4164-6-7-5-3-0"
           style="fill:url(#radialGradient57620);fill-opacity:1;stroke:none;stroke-width:1.73929;stroke-linejoin:miter;stroke-miterlimit:4;stroke-dasharray:none;stroke-opacity:1" />
        <circle
           r="73.686562"
           cy="456.95282"
           cx="53.310486"
           id="path4164-6-7-5-3-7"
           style="fill:url(#radialGradient60820);fill-opacity:1;stroke:none;stroke-width:1.75115;stroke-linejoin:miter;stroke-miterlimit:4;stroke-dasharray:none;stroke-opacity:1" />
        <ellipse
           cy="749.19415"
           cx="53.310486"
           id="path4164-6-7-5-5-92"
           style="fill:url(#radialGradient55610);fill-opacity:1;stroke:none;stroke-width:1.74774;stroke-linejoin:miter;stroke-miterlimit:4;stroke-dasharray:none;stroke-opacity:1"
           rx="73.523842"
           ry="73.542969" />
        <g
           aria-label="DepDigest"
           transform="matrix(0.93749996,0,0,0.93749996,-81.05485,253.30905)"
           id="text3339"
           style="font-size:529.134px;line-height:125%;letter-spacing:0px;word-spacing:0px;white-space:pre;shape-inside:url(#rect3341);display:inline;stroke-width:1px">
          <path
             d="m 297.73859,558.94001 q -10.05355,0 -16.93229,-6.87874 -6.87874,-6.87874 -6.87874,-16.93229 V 213.94466 q 0,-10.05354 6.87874,-16.93229 6.87874,-7.40787 16.93229,-7.40787 h 106.35592 q 47.62206,0 82.5449,16.40315 34.92285,15.87402 58.20474,42.85985 23.2819,26.4567 34.39371,59.26301 11.64095,32.8063 11.64095,66.14174 0,33.33544 -11.64095,66.14175 -11.11181,32.80631 -34.39371,59.79214 -23.28189,26.4567 -58.20474,42.85985 -34.92284,15.87402 -82.5449,15.87402 z m 24.34016,-44.97639 h 76.19529 q 44.44725,0 76.72443,-17.46142 32.8063,-17.99055 50.26772,-49.20946 17.99056,-31.74804 17.99056,-73.02049 0,-41.27245 -17.99056,-72.49135 -17.46142,-31.74804 -50.26772,-49.20946 -32.27718,-17.99055 -76.72443,-17.99055 h -76.19529 z"
             style="font-family:'Varela Round';-inkscape-font-specification:'Varela Round'"
             id="path336" />
          <path
             d="m 772.37196,564.23135 q -64.55435,0 -101.06459,-36.51024 -35.98111,-37.03938 -35.98111,-103.71026 0,-35.98111 13.22835,-67.72915 13.22835,-32.27717 41.27245,-52.38426 28.0441,-20.10709 71.96222,-20.10709 40.74331,0 68.78741,19.04882 28.0441,18.51969 42.33072,48.68032 14.81575,30.16064 14.81575,65.61262 0,10.05354 -6.87874,16.93228 -6.34961,6.87874 -17.46142,6.87874 H 684.00658 q 4.23307,35.45198 26.98583,57.14647 22.75277,21.16536 65.61262,21.16536 23.81103,0 40.21418,-4.23307 16.40315,-4.7622 31.2189,-12.17008 4.23308,-2.11654 9.52441,-2.11654 8.46615,0 14.81576,5.82048 6.3496,5.82047 6.3496,14.81575 0,6.34961 -4.23307,11.64095 -3.70394,4.7622 -9.52441,7.93701 -17.46142,10.05354 -38.09765,16.93228 -20.10709,6.34961 -54.50079,6.34961 z M 684.00658,401.78722 H 840.1011 q -1.5874,-27.51497 -14.28661,-44.44725 -12.17008,-16.93229 -29.63151,-24.8693 -17.46142,-7.93701 -34.3937,-7.93701 -16.93229,0 -34.39371,7.93701 -17.46142,7.93701 -29.6315,24.8693 -12.17009,16.93228 -13.75749,44.44725 z"
             style="font-family:'Varela Round';-inkscape-font-specification:'Varela Round'"
             id="path338" />
          <path
             d="m 975.03022,683.28649 q -10.05355,0 -16.93229,-7.40787 -6.87874,-6.87874 -6.87874,-16.93229 V 310.24704 q 0,-10.05354 6.87874,-16.93228 6.87874,-6.87874 16.93229,-6.87874 10.58267,0 17.46142,6.87874 6.87874,6.87874 6.87874,16.93228 v 13.75749 q 18.51972,-19.04883 40.74332,-29.63151 22.2236,-10.58267 49.7386,-10.58267 32.2772,0 61.3795,16.40315 29.1024,16.40315 47.6221,47.62206 19.0488,31.2189 19.0488,76.19529 0,44.97639 -19.0488,76.19529 -18.5197,31.2189 -47.6221,47.62206 -29.1023,16.40315 -61.3795,16.40315 -27.515,0 -49.7386,-10.58268 -22.2236,-10.58268 -40.74332,-29.6315 v 134.92916 q 0,10.05355 -6.87874,16.93229 -6.87875,7.40787 -17.46142,7.40787 z M 1082.9735,519.25496 q 37.5686,0 61.9087,-24.34016 24.8693,-24.34016 24.8693,-70.90395 0,-47.09293 -24.8693,-70.90395 -24.3401,-24.34017 -61.9087,-24.34017 -25.9275,0 -47.0929,11.64095 -21.1653,11.11181 -36.51022,28.0441 v 111.11813 q 15.34492,16.93229 36.51022,28.57324 21.1654,11.11181 47.0929,11.11181 z"
             style="font-family:'Varela Round';-inkscape-font-specification:'Varela Round'"
             id="path340" />
          <path
             d="m 1311.0306,558.94001 q -10.0535,0 -16.9322,-6.87874 -6.8788,-6.87874 -6.8788,-16.93229 V 213.94466 q 0,-10.05354 6.8788,-16.93229 6.8787,-7.40787 16.9322,-7.40787 h 106.356 q 47.622,0 82.5449,16.40315 34.9228,15.87402 58.2047,42.85985 23.2819,26.4567 34.3937,59.26301 11.641,32.8063 11.641,66.14174 0,33.33544 -11.641,66.14175 -11.1118,32.80631 -34.3937,59.79214 -23.2819,26.4567 -58.2047,42.85985 -34.9229,15.87402 -82.5449,15.87402 z m 24.3402,-44.97639 h 76.1953 q 44.4472,0 76.7244,-17.46142 32.8063,-17.99055 50.2677,-49.20946 17.9906,-31.74804 17.9906,-73.02049 0,-41.27245 -17.9906,-72.49135 -17.4614,-31.74804 -50.2677,-49.20946 -32.2772,-17.99055 -76.7244,-17.99055 h -76.1953 z"
             style="font-family:'Varela Round';-inkscape-font-specification:'Varela Round'"
             id="path342" />
          <path
             d="m 1692.5358,234.05175 q -11.1118,0 -19.0488,-7.93701 -7.937,-7.93701 -7.937,-19.04882 v -2.11654 q 0,-11.11181 7.937,-19.04882 7.937,-7.93701 19.0488,-7.93701 h 3.1748 q 11.1118,0 19.0488,7.93701 7.937,7.93701 7.937,19.04882 v 2.11654 q 0,11.11181 -7.937,19.04882 -7.937,7.93701 -19.0488,7.93701 z m 1.0583,327.53393 q -10.0536,0 -16.9323,-6.87874 -6.8788,-6.87874 -6.8788,-16.93229 V 310.77618 q 0,-10.58268 6.8788,-17.46142 6.8787,-6.87874 16.9323,-6.87874 10.5826,0 17.4614,6.87874 6.8787,6.87874 6.8787,17.46142 v 226.99847 q 0,10.05355 -6.8787,16.93229 -6.8788,6.87874 -17.4614,6.87874 z"
             style="font-family:'Varela Round';-inkscape-font-specification:'Varela Round'"
             id="path344" />
          <path
             d="m 1927.4716,685.93216 q -32.2772,0 -63.4961,-8.46614 -31.2189,-8.46614 -49.7386,-19.04882 -3.704,-2.64567 -6.8788,-6.87874 -2.6456,-4.23308 -2.6456,-11.64095 0,-7.93701 5.8204,-14.81575 6.3497,-6.87874 15.3449,-6.87874 2.6457,0 4.7622,0.52913 2.6457,0.52913 4.7622,1.5874 16.9323,8.46615 38.6268,14.28662 21.6945,5.82047 48.6803,5.82047 80.9575,0 80.9575,-86.24884 v -35.45197 q -16.4031,17.46142 -38.6267,29.10237 -22.2237,11.11181 -51.8552,11.11181 -22.2236,0 -44.9764,-8.46614 -22.2236,-8.46615 -41.2724,-25.39843 -18.5197,-16.93229 -30.1606,-42.85986 -11.641,-25.92756 -11.641,-60.8504 0,-34.92284 11.641,-60.85041 11.6409,-25.92756 30.1606,-42.85985 19.0488,-16.93229 41.2724,-25.39843 22.7528,-8.46614 44.9764,-8.46614 29.6315,0 51.8552,11.64094 22.2236,11.11182 38.6267,28.57324 v -13.22835 q 0,-10.05355 6.8788,-16.93229 6.8787,-7.40787 16.9323,-7.40787 10.0535,0 16.9323,7.40787 7.4078,6.87874 7.4078,16.93229 v 236.52288 q 0,66.67088 -32.2771,102.65199 -32.2772,35.98111 -92.0693,35.98111 z m -4.2331,-170.91027 q 27.5149,0 46.5638,-12.17008 19.0488,-12.17008 33.8645,-26.98583 v -109.0016 q -14.8157,-15.34489 -33.8645,-26.98583 -19.0489,-12.17009 -46.5638,-12.17009 -24.8693,0 -45.5055,10.05355 -20.6363,10.05355 -32.8063,31.2189 -11.641,20.63623 -11.641,52.38427 0,31.74804 11.641,52.9134 12.17,20.63622 32.8063,30.68977 20.6362,10.05354 45.5055,10.05354 z"
             style="font-family:'Varela Round';-inkscape-font-specification:'Varela Round'"
             id="path346" />
          <path
             d="m 2256.0641,564.23135 q -64.5543,0 -101.0646,-36.51024 -35.9811,-37.03938 -35.9811,-103.71026 0,-35.98111 13.2284,-67.72915 13.2283,-32.27717 41.2724,-52.38426 28.0441,-20.10709 71.9622,-20.10709 40.7434,0 68.7875,19.04882 28.0441,18.51969 42.3307,48.68032 14.8157,30.16064 14.8157,65.61262 0,10.05354 -6.8787,16.93228 -6.3496,6.87874 -17.4614,6.87874 h -179.3764 q 4.233,35.45198 26.9858,57.14647 22.7527,21.16536 65.6126,21.16536 23.811,0 40.2142,-4.23307 16.4031,-4.7622 31.2189,-12.17008 4.2331,-2.11654 9.5244,-2.11654 8.4661,0 14.8157,5.82048 6.3497,5.82047 6.3497,14.81575 0,6.34961 -4.2331,11.64095 -3.704,4.7622 -9.5244,7.93701 -17.4615,10.05354 -38.0977,16.93228 -20.1071,6.34961 -54.5008,6.34961 z m -88.3653,-162.44413 h 156.0945 q -1.5874,-27.51497 -14.2866,-44.44725 -12.1701,-16.93229 -29.6315,-24.8693 -17.4615,-7.93701 -34.3938,-7.93701 -16.9322,0 -34.3937,7.93701 -17.4614,7.93701 -29.6315,24.8693 -12.17,16.93228 -13.7574,44.44725 z"
             style="font-family:'Varela Round';-inkscape-font-specification:'Varela Round'"
             id="path348" />
          <path
             d="m 2522.2186,564.23135 q -29.1024,0 -52.9134,-6.34961 -23.2819,-6.3496 -43.389,-17.46142 -8.9953,-6.34961 -8.9953,-17.46142 0,-7.93701 5.8205,-14.28662 5.8204,-6.87874 14.8157,-6.87874 4.7622,0 9.5244,2.11654 14.2866,6.34961 31.2189,11.11181 17.4615,4.76221 40.7433,4.76221 30.6898,0 44.4473,-9.52441 14.2866,-10.05355 14.2866,-28.04411 0,-11.64094 -11.6409,-17.99055 -11.1118,-6.34961 -29.6315,-10.58268 -17.9906,-4.76221 -38.0977,-9.52441 -20.1071,-5.29134 -38.6268,-13.75748 -17.9905,-8.99528 -29.6315,-23.81103 -11.1118,-15.34489 -11.1118,-39.15592 0,-35.98111 25.9276,-59.79214 25.9276,-23.81102 77.2536,-23.81102 21.6944,0 40.7433,3.70393 19.5779,3.70394 35.9811,9.52441 7.4079,2.11654 11.1118,8.46615 4.2331,5.82047 4.2331,11.64095 0,8.46614 -6.3496,14.81575 -5.8205,6.3496 -14.8158,6.3496 -2.1165,0 -3.7039,0 -1.5874,-0.52913 -3.1748,-1.05826 -12.6993,-4.23308 -28.0441,-6.87875 -14.8158,-2.64567 -32.2772,-2.64567 -29.1024,0 -44.9764,10.58268 -15.874,10.58268 -15.874,26.4567 0,13.75749 11.1118,21.16536 11.6409,7.40788 29.6315,12.17008 18.5197,4.23307 38.6268,8.99528 20.6362,4.76221 38.6268,13.75748 18.5196,8.46615 29.6315,23.81103 11.6409,15.34489 11.6409,41.27245 0,32.27717 -25.9276,55.55907 -25.3984,22.75276 -76.1952,22.75276 z"
             style="font-family:'Varela Round';-inkscape-font-specification:'Varela Round'"
             id="path350" />
          <path
             d="m 2779.9067,564.23135 q -9.5244,0 -22.7528,-2.11654 -12.6992,-1.5874 -25.3984,-7.93701 -12.1701,-6.87874 -20.6362,-21.16535 -8.4662,-14.28662 -8.4662,-38.62678 V 330.35413 h -37.5685 q -10.0535,0 -10.0535,-10.05354 0,-5.29134 4.7622,-8.99528 l 71.9622,-70.37482 q 1.0583,-1.05826 3.1748,-2.64567 2.6457,-2.11653 5.8205,-2.11653 4.2331,0 6.8787,3.1748 3.1748,3.17481 3.1748,7.40788 v 42.33071 h 59.7922 q 8.9952,0 14.8157,5.82048 5.8205,5.82047 5.8205,14.81575 0,8.46614 -5.8205,14.81575 -5.8205,5.82047 -14.8157,5.82047 h -59.7922 v 159.79846 q 0,15.34489 5.8205,22.22363 5.8205,6.87874 13.7575,8.46614 8.4661,1.05827 14.8157,1.05827 12.6993,0 18.5197,-2.11653 6.3496,-2.64567 13.2284,-2.64567 7.4079,0 13.2283,5.29134 5.8205,5.29134 5.8205,13.75748 0,12.17008 -12.1701,18.51969 -9.5244,4.23307 -20.6362,6.87874 -10.5827,2.64567 -23.2819,2.64567 z"
             style="font-family:'Varela Round';-inkscape-font-specification:'Varela Round'"
             id="path352" />
        </g>
      </g>
    </g>
  </g>
</svg>
