<?xml version="1.0" encoding="UTF-8" standalone="no"?>
<svg
   version="1.1"
   id="svg2"
   viewBox="0 0 4658.1403 601.19286"
   height="16.966999cm"
   width="131.463cm"
   inkscape:version="1.2.2 (b0a8486541, 2022-12-01)"
   sodipodi:docname="logo_paths.svg"
   inkscape:export-filename="logo.png"
   inkscape:export-xdpi="96"
   inkscape:export-ydpi="96"
   xmlns:inkscape="http://www.inkscape.org/namespaces/inkscape"
   xmlns:sodipodi="http://sodipodi.sourceforge.net/DTD/sodipodi-0.dtd"
   xmlns:xlink="http://www.w3.org/1999/xlink"
   xmlns="http://www.w3.org/2000/svg"
   xmlns:svg="http://www.w3.org/2000/svg"
   xmlns:rdf="http://www.w3.org/1999/02/22-rdf-syntax-ns#"
   xmlns:cc="http://creativecommons.org/ns#"
   xmlns:dc="http://purl.org/dc/elements/1.1/">
  <sodipodi:namedview
     pagecolor="#ffffff"
     bordercolor="#666666"
     borderopacity="1"
     objecttolerance="10"
     gridtolerance="10"
     guidetolerance="10"
     inkscape:pageopacity="0"
     inkscape:pageshadow="2"
     inkscape:window-width="1920"
     inkscape:window-height="1043"
     id="namedview40"
     showgrid="false"
     fit-margin-top="1.5"
     fit-margin-left="1.5"
     fit-margin-right="1.5"
     fit-margin-bottom="1.5"
     inkscape:zoom="0.31723122"
     inkscape:cx="2550.1904"
     inkscape:cy="423.98097"
     inkscape:window-x="1920"
     inkscape:window-y="0"
     inkscape:window-maximized="1"
     inkscape:current-layer="g71262"
     inkscape:pagecheckerboard="0"
     inkscape:document-units="cm"
     inkscape:showpageshadow="0"
     inkscape:deskcolor="#d1d1d1" />
  <defs
     id="defs4">
    <linearGradient
       inkscape:collect="always"
       id="linearGradient60818">
      <stop
         style="stop-color:#ffcc00;stop-opacity:1;"
         offset="0"
         id="stop60814" />
      <stop
         style="stop-color:#ffcc00;stop-opacity:0;"
         offset="1"
         id="stop60816" />
    </linearGradient>
    <linearGradient
       inkscape:collect="always"
       id="linearGradient57616">
      <stop
         style="stop-color:#ce5027;stop-opacity:1;"
         offset="0"
         id="stop57612" />
      <stop
         style="stop-color:#ce5027;stop-opacity:0;"
         offset="1"
         id="stop57614" />
    </linearGradient>
    <linearGradient
       inkscape:collect="always"
       id="linearGradient55606">
      <stop
         style="stop-color:#004082;stop-opacity:1;"
         offset="0"
         id="stop55602" />
      <stop
         style="stop-color:#004082;stop-opacity:0;"
         offset="1"
         id="stop55604" />
    </linearGradient>
    <rect
       x="222.60136"
       y="77.493637"
       width="4931.7876"
       height="642.89679"
       id="rect3341" />
    <linearGradient
       id="linearGradient5816"
       inkscape:swatch="solid">
      <stop
         id="stop5818"
         offset="0"
         style="stop-color:#0066cd;stop-opacity:1;" />
    </linearGradient>
    <linearGradient
       id="linearGradient5810"
       inkscape:swatch="solid">
      <stop
         id="stop5812"
         offset="0"
         style="stop-color:#0066cd;stop-opacity:1;" />
    </linearGradient>
    <linearGradient
       id="linearGradient5800-2"
       inkscape:swatch="solid">
      <stop
         style="stop-color:#004082;stop-opacity:0;"
         offset="0"
         id="stop5808" />
    </linearGradient>
    <linearGradient
       id="linearGradient5800">
      <stop
         id="stop5802"
         offset="0"
         style="stop-color:#004082;stop-opacity:0;" />
    </linearGradient>
    <linearGradient
       id="azul-8"
       inkscape:swatch="solid">
      <stop
         id="stop5796"
         offset="0"
         style="stop-color:#004082;stop-opacity:0;" />
    </linearGradient>
    <linearGradient
       id="linearGradient5788"
       inkscape:swatch="solid">
      <stop
         id="stop5790"
         offset="0"
         style="stop-color:#0066cd;stop-opacity:0;" />
    </linearGradient>
    <radialGradient
       inkscape:collect="always"
       xlink:href="#linearGradient55606"
       id="radialGradient55610"
       cx="70.203407"
       cy="751.98877"
       fx="70.203407"
       fy="751.98877"
       r="52.525475"
       gradientUnits="userSpaceOnUse"
       gradientTransform="matrix(1.4001391,0,0,1.4001391,4227.6466,-248.21167)" />
    <radialGradient
       inkscape:collect="always"
       xlink:href="#linearGradient57616"
       id="radialGradient57620"
       cx="1150.0629"
       cy="452.91687"
       fx="1150.0629"
       fy="452.91687"
       r="53.149605"
       gradientUnits="userSpaceOnUse"
       gradientTransform="matrix(1.4024753,0,0,1.4024753,-386.7325,-46.27364)" />
    <radialGradient
       inkscape:collect="always"
       xlink:href="#linearGradient60818"
       id="radialGradient60820"
       cx="2447.1047"
       cy="440.59293"
       fx="2447.1047"
       fy="440.59293"
       r="52.525475"
       gradientUnits="userSpaceOnUse"
       gradientTransform="matrix(1.4028729,0,0,1.4028729,-336.022,191.82192)" />
  </defs>
  <metadata
     id="metadata7">
    <rdf:RDF>
      <cc:Work
         rdf:about="">
        <dc:format>image/svg+xml</dc:format>
        <dc:type
           rdf:resource="http://purl.org/dc/dcmitype/StillImage" />
      </cc:Work>
    </rdf:RDF>
  </metadata>
  <g
     transform="translate(-113.87722,-381.27618)"
     id="layer1">
    <g
       id="g70941">
      <g
         id="g71262">
        <circle
           r="73.66568"
           cy="588.93109"
           cx="1226.2024"
           id="path4164-6-7-5-3-0"
           style="fill:url(#radialGradient57620);fill-opacity:1;stroke:none;stroke-width:1.73929;stroke-linejoin:miter;stroke-miterlimit:4;stroke-dasharray:none;stroke-opacity:1" />
        <circle
           r="73.686562"
           cy="809.91772"
           cx="3096.9551"
           id="path4164-6-7-5-3-7"
           style="fill:url(#radialGradient60820);fill-opacity:1;stroke:none;stroke-width:1.75115;stroke-linejoin:miter;stroke-miterlimit:4;stroke-dasharray:none;stroke-opacity:1" />
        <ellipse
           cy="804.67719"
           cx="4325.9414"
           id="path4164-6-7-5-5-92"
           style="fill:url(#radialGradient55610);fill-opacity:1;stroke:none;stroke-width:1.74774;stroke-linejoin:miter;stroke-miterlimit:4;stroke-dasharray:none;stroke-opacity:1"
           rx="73.523842"
           ry="73.542969" />
        <g
           aria-label="PharmacophoreMT"
           transform="matrix(0.93749996,0,0,0.93749996,-66.05485,300.18405)"
           id="text3339"
           style="font-size:529.134px;line-height:125%;letter-spacing:0px;word-spacing:0px;white-space:pre;shape-inside:url(#rect3341);display:inline;stroke-width:1px">
          <path
             d="m 297.73859,561.58568 q -10.05355,0 -16.93229,-6.87874 -6.87874,-6.87874 -6.87874,-16.93229 V 213.94466 q 0,-10.05354 6.87874,-16.93229 6.87874,-7.40787 16.93229,-7.40787 h 120.64254 q 40.21418,0 67.20002,10.58268 27.51496,10.05354 43.38898,27.51496 16.40316,16.93229 23.2819,37.56852 7.40787,20.63622 7.40787,41.80158 0,21.16536 -7.40787,41.80158 -6.87874,20.63623 -23.2819,38.09765 -15.87402,16.93229 -43.38898,27.51497 -26.98584,10.05354 -67.20002,10.05354 h -96.30238 v 113.23467 q 0,10.05355 -7.40788,16.93229 -6.87874,6.87874 -16.93228,6.87874 z m 24.34016,-182.55122 h 91.54018 q 39.68504,0 60.8504,-10.58268 21.16536,-11.11181 29.10237,-27.51497 7.93701,-16.93228 7.93701,-33.86457 0,-17.46142 -7.93701,-33.86457 -7.93701,-16.40316 -29.10237,-26.98584 -21.16536,-11.11181 -60.8504,-11.11181 h -91.54018 z"
             style="font-family:'Varela Round';-inkscape-font-specification:'Varela Round'"
             id="path342" />
          <path
             d="m 640.61759,561.58568 q -10.05355,0 -16.93229,-6.87874 -6.87874,-6.87874 -6.87874,-16.93229 V 194.3667 q 0,-10.58268 6.87874,-17.46142 6.87874,-6.87874 16.93229,-6.87874 10.05354,0 16.93228,6.87874 7.40788,6.87874 7.40788,17.46142 v 138.10397 q 16.93229,-18.51969 39.68505,-33.33544 23.28189,-15.34488 58.73387,-15.34488 30.16063,0 51.32599,14.28661 21.16536,13.75749 32.27718,37.56851 11.11181,23.2819 11.11181,51.85513 v 150.27405 q 0,10.05355 -7.40788,16.93229 -6.87874,6.87874 -16.93228,6.87874 -10.05355,0 -16.93229,-6.87874 -6.87874,-6.87874 -6.87874,-16.93229 V 392.79194 q 0,-30.16063 -13.75749,-47.09292 -13.22834,-17.46142 -44.44725,-17.46142 -28.57323,0 -49.73859,15.34488 -21.16536,15.34489 -37.03938,35.45198 v 158.74019 q 0,10.05355 -7.40788,16.93229 -6.87874,6.87874 -16.93228,6.87874 z"
             style="font-family:'Varela Round';-inkscape-font-specification:'Varela Round'"
             id="path344" />
          <path
             d="m 1007.8362,564.23135 q -22.75277,0 -42.85986,-9.52441 -19.57796,-9.52441 -31.74804,-26.98583 -11.64094,-17.99056 -11.64094,-42.85986 0,-37.56851 29.6315,-61.37954 30.16063,-24.34016 92.06934,-24.34016 h 64.0252 v -4.23307 q 0,-35.45198 -17.4614,-50.26773 -17.4615,-15.34488 -53.4426,-15.34488 -22.2236,0 -39.15589,4.23307 -16.40315,3.70394 -31.2189,8.46614 -4.23307,1.05827 -6.87874,1.05827 -7.93701,0 -13.75749,-5.82047 -5.82047,-5.82048 -5.82047,-14.28662 0,-14.28662 13.75748,-20.10709 18.51969,-7.93701 40.74332,-13.22835 22.75279,-5.82047 50.79689,-5.82047 38.6268,0 62.9669,15.34488 24.3402,15.34489 35.9811,39.15591 11.641,23.81103 11.641,49.7386 v 149.74491 q 0,10.05355 -7.4079,16.93229 -6.8787,6.87874 -16.9323,6.87874 -10.0535,0 -16.9323,-6.87874 -6.8787,-6.87874 -6.8787,-16.93229 v -13.75748 q -14.2866,14.81575 -38.0977,27.51497 -23.811,12.69921 -61.3795,12.69921 z m 17.9905,-42.33072 q 24.8693,0 46.5638,-12.17008 21.6945,-12.17008 34.9229,-27.51497 v -44.44725 h -57.6756 q -37.0394,0 -58.73389,9.52441 -21.16536,9.52441 -21.16536,32.27717 0,16.93229 11.64094,29.63151 12.17009,12.69921 44.44721,12.69921 z"
             style="font-family:'Varela Round';-inkscape-font-specification:'Varela Round'"
             id="path346" />
          <path
             d="m 1260.2332,561.58568 q -10.0535,0 -16.9323,-6.87874 -6.8787,-6.87874 -6.8787,-16.93229 V 310.77618 q 0,-10.05355 6.8787,-16.93229 6.8788,-7.40787 16.9323,-7.40787 10.0536,0 16.9323,7.40787 7.4079,6.87874 7.4079,16.93229 v 22.75276 q 14.2866,-19.04882 34.9228,-34.39371 20.6362,-15.34488 48.1512,-15.34488 h 2.6457 q 10.0535,0 16.4031,6.87874 6.8788,6.87874 6.8788,16.93228 0,10.05355 -6.8788,16.40316 -6.8787,6.3496 -17.4614,6.3496 h -2.6457 q -25.9275,0 -47.0929,13.22835 -21.1653,12.69922 -34.9228,33.33544 v 160.85673 q 0,10.05355 -7.4079,16.93229 -6.8787,6.87874 -16.9323,6.87874 z"
             style="font-family:'Varela Round';-inkscape-font-specification:'Varela Round'"
             id="path348" />
          <path
             d="m 1462.8912,561.58568 q -10.0536,0 -16.9323,-6.87874 -6.8788,-6.87874 -6.8788,-16.93229 V 310.77618 q 0,-10.05355 6.8788,-16.93229 6.8787,-7.40787 16.9323,-7.40787 10.0535,0 16.9323,7.40787 7.4078,6.87874 7.4078,16.93229 v 21.69449 q 7.4079,-10.58268 18.5197,-21.69449 11.641,-11.11182 29.1024,-19.04883 17.4614,-7.937 42.3307,-7.937 31.7481,0 51.8551,16.93228 20.6363,16.93229 29.1024,37.56851 6.3496,-10.05354 17.9906,-22.75276 11.6409,-12.69921 30.6897,-22.22362 19.578,-9.52441 48.6804,-9.52441 31.2189,0 50.7968,15.87401 19.578,15.34489 28.5733,38.62678 8.9952,23.2819 8.9952,47.09293 v 152.39058 q 0,10.05355 -7.4078,16.93229 -6.8788,6.87874 -16.9323,6.87874 -10.0536,0 -16.9323,-6.87874 -6.8788,-6.87874 -6.8788,-16.93229 V 394.90848 q 0,-33.33544 -12.17,-49.73859 -11.641,-16.93229 -41.8016,-16.93229 -20.1071,0 -34.3937,7.93701 -14.2866,7.40787 -24.3402,19.04882 -10.0535,11.64095 -17.4614,23.81103 v 158.74019 q 0,10.05355 -7.4079,16.93229 -6.8787,6.87874 -16.9323,6.87874 -10.0535,0 -16.9323,-6.87874 -6.8787,-6.87874 -6.8787,-16.93229 V 394.90848 q 0,-33.33544 -12.1701,-49.73859 -11.6409,-16.93229 -41.8016,-16.93229 -20.1071,0 -34.3937,7.93701 -14.2866,7.40787 -24.3401,19.04882 -10.0536,11.64095 -17.4615,23.81103 v 158.74019 q 0,10.05355 -7.4078,16.93229 -6.8788,6.87874 -16.9323,6.87874 z"
             style="font-family:'Varela Round';-inkscape-font-specification:'Varela Round'"
             id="path350" />
          <path
             d="m 1993.6122,564.23135 q -22.7528,0 -42.8599,-9.52441 -19.5779,-9.52441 -31.748,-26.98583 -11.6409,-17.99056 -11.6409,-42.85986 0,-37.56851 29.6315,-61.37954 30.1606,-24.34016 92.0693,-24.34016 h 64.0252 v -4.23307 q 0,-35.45198 -17.4614,-50.26773 -17.4615,-15.34488 -53.4426,-15.34488 -22.2236,0 -39.1559,4.23307 -16.4031,3.70394 -31.2189,8.46614 -4.2331,1.05827 -6.8787,1.05827 -7.937,0 -13.7575,-5.82047 -5.8205,-5.82048 -5.8205,-14.28662 0,-14.28662 13.7575,-20.10709 18.5197,-7.93701 40.7433,-13.22835 22.7528,-5.82047 50.7969,-5.82047 38.6268,0 62.9669,15.34488 24.3402,15.34489 35.9811,39.15591 11.641,23.81103 11.641,49.7386 v 149.74491 q 0,10.05355 -7.4079,16.93229 -6.8787,6.87874 -16.9323,6.87874 -10.0535,0 -16.9323,-6.87874 -6.8787,-6.87874 -6.8787,-16.93229 v -13.75748 q -14.2866,14.81575 -38.0977,27.51497 -23.811,12.69921 -61.3795,12.69921 z m 17.9905,-42.33072 q 24.8693,0 46.5638,-12.17008 21.6945,-12.17008 34.9229,-27.51497 v -44.44725 h -57.6756 q -37.0394,0 -58.7339,9.52441 -21.1654,9.52441 -21.1654,32.27717 0,16.93229 11.641,29.63151 12.1701,12.69921 44.4472,12.69921 z"
             style="font-family:'Varela Round';-inkscape-font-specification:'Varela Round'"
             id="path352" />
          <path
             d="m 2347.0738,564.23135 q -37.5685,0 -69.8457,-16.40315 -32.2771,-16.93229 -51.8551,-48.15119 -19.578,-31.74804 -19.578,-75.66616 0,-44.44726 19.578,-75.66616 19.578,-31.2189 51.8551,-47.62206 32.2772,-16.93228 69.8457,-16.93228 31.2189,0 51.8551,8.46614 21.1654,7.93701 34.3937,16.93229 10.5827,6.87874 10.5827,18.51968 0,7.40788 -5.8204,14.28662 -5.8205,6.87874 -14.2867,6.87874 -5.8204,0 -11.6409,-3.1748 -13.7575,-7.40788 -26.9858,-12.17008 -13.2284,-4.76221 -33.8646,-4.76221 -46.0347,0 -71.9622,26.4567 -25.3985,26.4567 -25.3985,68.78742 0,42.33072 25.3985,68.78741 25.9275,26.4567 71.9622,26.4567 20.6362,0 33.8646,-4.7622 13.2283,-5.29134 26.9858,-12.17008 5.8205,-3.17481 11.6409,-3.17481 8.4662,0 14.2867,6.87874 5.8204,6.87875 5.8204,14.28662 0,11.64095 -10.5827,18.51969 -13.2283,8.46614 -34.3937,16.93229 -20.6362,8.46614 -51.8551,8.46614 z"
             style="font-family:'Varela Round';-inkscape-font-specification:'Varela Round'"
             id="path354" />
          <path
             d="m 2621.1658,564.23135 q -40.7433,0 -71.4331,-17.46142 -30.6897,-17.99056 -47.622,-49.20946 -16.4032,-31.74804 -16.4032,-73.54962 0,-41.80159 16.4032,-73.02049 16.9323,-31.74804 47.622,-49.20946 30.6898,-17.99055 71.4331,-17.99055 40.7433,0 70.904,17.99055 30.6897,17.46142 47.622,49.20946 16.9323,31.2189 16.9323,73.02049 0,41.80158 -16.9323,73.54962 -16.9323,31.2189 -47.622,49.20946 -30.1607,17.46142 -70.904,17.46142 z m 0,-43.91812 q 20.1071,0 40.2142,-9.52441 20.1071,-9.52441 33.3354,-30.68977 13.7575,-21.69449 13.7575,-56.61734 0,-34.92284 -13.7575,-56.0882 -13.2283,-21.16536 -33.3354,-30.16063 -20.1071,-9.52442 -40.2142,-9.52442 -20.1071,0 -40.7433,9.52442 -20.1071,8.99527 -33.3354,30.16063 -13.2284,21.16536 -13.2284,56.0882 0,34.92285 13.2284,56.61734 13.2283,21.16536 33.3354,30.68977 20.6362,9.52441 40.7433,9.52441 z"
             style="font-family:'Varela Round';-inkscape-font-specification:'Varela Round'"
             id="path356" />
          <path
             d="m 2847.6351,683.28649 q -10.0536,0 -16.9323,-7.40787 -6.8788,-6.87874 -6.8788,-16.93229 V 310.24704 q 0,-10.05354 6.8788,-16.93228 6.8787,-6.87874 16.9323,-6.87874 10.5827,0 17.4614,6.87874 6.8787,6.87874 6.8787,16.93228 v 13.75749 q 18.5197,-19.04883 40.7434,-29.63151 22.2236,-10.58267 49.7385,-10.58267 32.2772,0 61.3796,16.40315 29.1024,16.40315 47.622,47.62206 19.0489,31.2189 19.0489,76.19529 0,44.97639 -19.0489,76.19529 -18.5196,31.2189 -47.622,47.62206 -29.1024,16.40315 -61.3796,16.40315 -27.5149,0 -49.7385,-10.58268 -22.2237,-10.58268 -40.7434,-29.6315 v 134.92916 q 0,10.05355 -6.8787,16.93229 -6.8787,7.40787 -17.4614,7.40787 z m 107.9433,-164.03153 q 37.5685,0 61.9087,-24.34016 24.8693,-24.34016 24.8693,-70.90395 0,-47.09293 -24.8693,-70.90395 -24.3402,-24.34017 -61.9087,-24.34017 -25.9276,0 -47.0929,11.64095 -21.1654,11.11181 -36.5103,28.0441 v 111.11813 q 15.3449,16.93229 36.5103,28.57324 21.1653,11.11181 47.0929,11.11181 z"
             style="font-family:'Varela Round';-inkscape-font-specification:'Varela Round'"
             id="path358" />
          <path
             d="m 3181.5189,561.58568 q -10.0536,0 -16.9323,-6.87874 -6.8788,-6.87874 -6.8788,-16.93229 V 194.3667 q 0,-10.58268 6.8788,-17.46142 6.8787,-6.87874 16.9323,-6.87874 10.0535,0 16.9322,6.87874 7.4079,6.87874 7.4079,17.46142 v 138.10397 q 16.9323,-18.51969 39.6851,-33.33544 23.2819,-15.34488 58.7338,-15.34488 30.1607,0 51.326,14.28661 21.1654,13.75749 32.2772,37.56851 11.1118,23.2819 11.1118,51.85513 v 150.27405 q 0,10.05355 -7.4079,16.93229 -6.8787,6.87874 -16.9322,6.87874 -10.0536,0 -16.9323,-6.87874 -6.8788,-6.87874 -6.8788,-16.93229 V 392.79194 q 0,-30.16063 -13.7574,-47.09292 -13.2284,-17.46142 -44.4473,-17.46142 -28.5732,0 -49.7386,15.34488 -21.1654,15.34489 -37.0394,35.45198 v 158.74019 q 0,10.05355 -7.4079,16.93229 -6.8787,6.87874 -16.9322,6.87874 z"
             style="font-family:'Varela Round';-inkscape-font-specification:'Varela Round'"
             id="path360" />
          <path
             d="m 3599.0052,564.23135 q -40.7434,0 -71.4331,-17.46142 -30.6898,-17.99056 -47.6221,-49.20946 -16.4031,-31.74804 -16.4031,-73.54962 0,-41.80159 16.4031,-73.02049 16.9323,-31.74804 47.6221,-49.20946 30.6897,-17.99055 71.4331,-17.99055 40.7433,0 70.9039,17.99055 30.6898,17.46142 47.6221,49.20946 16.9323,31.2189 16.9323,73.02049 0,41.80158 -16.9323,73.54962 -16.9323,31.2189 -47.6221,49.20946 -30.1606,17.46142 -70.9039,17.46142 z m 0,-43.91812 q 20.1071,0 40.2141,-9.52441 20.1071,-9.52441 33.3355,-30.68977 13.7575,-21.69449 13.7575,-56.61734 0,-34.92284 -13.7575,-56.0882 -13.2284,-21.16536 -33.3355,-30.16063 -20.107,-9.52442 -40.2141,-9.52442 -20.1071,0 -40.7434,9.52442 -20.107,8.99527 -33.3354,30.16063 -13.2283,21.16536 -13.2283,56.0882 0,34.92285 13.2283,56.61734 13.2284,21.16536 33.3354,30.68977 20.6363,9.52441 40.7434,9.52441 z"
             style="font-family:'Varela Round';-inkscape-font-specification:'Varela Round'"
             id="path362" />
          <path
             d="m 3825.4744,561.58568 q -10.0535,0 -16.9323,-6.87874 -6.8787,-6.87874 -6.8787,-16.93229 V 310.77618 q 0,-10.05355 6.8787,-16.93229 6.8788,-7.40787 16.9323,-7.40787 10.0536,0 16.9323,7.40787 7.4079,6.87874 7.4079,16.93229 v 22.75276 q 14.2866,-19.04882 34.9228,-34.39371 20.6363,-15.34488 48.1512,-15.34488 h 2.6457 q 10.0535,0 16.4031,6.87874 6.8788,6.87874 6.8788,16.93228 0,10.05355 -6.8788,16.40316 -6.8787,6.3496 -17.4614,6.3496 h -2.6456 q -25.9276,0 -47.093,13.22835 -21.1653,12.69922 -34.9228,33.33544 v 160.85673 q 0,10.05355 -7.4079,16.93229 -6.8787,6.87874 -16.9323,6.87874 z"
             style="font-family:'Varela Round';-inkscape-font-specification:'Varela Round'"
             id="path364" />
          <path
             d="m 4117.0274,564.23135 q -64.5544,0 -101.0646,-36.51024 -35.9811,-37.03938 -35.9811,-103.71026 0,-35.98111 13.2283,-67.72915 13.2284,-32.27717 41.2725,-52.38426 28.0441,-20.10709 71.9622,-20.10709 40.7433,0 68.7874,19.04882 28.0441,18.51969 42.3307,48.68032 14.8158,30.16064 14.8158,65.61262 0,10.05354 -6.8788,16.93228 -6.3496,6.87874 -17.4614,6.87874 H 4028.662 q 4.2331,35.45198 26.9858,57.14647 22.7528,21.16536 65.6127,21.16536 23.811,0 40.2141,-4.23307 16.4032,-4.7622 31.2189,-12.17008 4.2331,-2.11654 9.5245,-2.11654 8.4661,0 14.8157,5.82048 6.3496,5.82047 6.3496,14.81575 0,6.34961 -4.2331,11.64095 -3.7039,4.7622 -9.5244,7.93701 -17.4614,10.05354 -38.0976,16.93228 -20.1071,6.34961 -54.5008,6.34961 z M 4028.662,401.78722 h 156.0945 q -1.5874,-27.51497 -14.2866,-44.44725 -12.1701,-16.93229 -29.6315,-24.8693 -17.4614,-7.93701 -34.3937,-7.93701 -16.9323,0 -34.3937,7.93701 -17.4614,7.93701 -29.6315,24.8693 -12.1701,16.93228 -13.7575,44.44725 z"
             style="font-family:'Varela Round';-inkscape-font-specification:'Varela Round'"
             id="path366" />
          <path
             d="m 4323.3897,561.58568 q -10.0535,0 -16.9323,-6.87874 -6.8787,-6.87874 -6.8787,-16.93229 V 221.88167 q 0,-14.28662 10.0535,-24.34016 10.0536,-10.58268 24.3402,-10.58268 h 17.4614 q 10.5827,0 19.578,6.34961 8.9952,6.3496 12.6992,15.87402 l 120.1134,299.48982 120.1134,-299.48982 q 4.2331,-9.52442 12.6992,-15.87402 8.9953,-6.34961 19.578,-6.34961 h 17.4614 q 14.2866,0 24.3402,10.58268 10.0535,10.05354 10.0535,24.34016 v 315.89298 q 0,10.05355 -6.8787,16.93229 -6.8788,6.87874 -16.9323,6.87874 -10.0536,0 -17.4614,-6.87874 -6.8788,-6.87874 -6.8788,-16.93229 V 237.22656 L 4537.689,539.36205 q -4.2331,10.05355 -13.2284,16.40316 -8.9953,5.82047 -20.6362,5.82047 -11.641,0 -20.6362,-5.82047 -8.9953,-6.34961 -13.2284,-16.40316 L 4347.7299,237.22656 v 300.54809 q 0,10.05355 -7.4079,16.93229 -6.8787,6.87874 -16.9323,6.87874 z"
             style="font-family:'Varela Round';-inkscape-font-specification:'Varela Round'"
             id="path368" />
          <path
             d="m 4920.2527,561.58568 q -10.0535,0 -16.9323,-6.87874 -6.8787,-6.87874 -6.8787,-16.93229 V 234.58089 h -107.9433 q -9.5244,0 -15.8741,-6.34961 -6.3496,-6.34961 -6.3496,-15.87402 0,-9.52441 6.3496,-15.87402 6.3497,-6.87874 15.8741,-6.87874 h 263.5087 q 9.5244,0 15.874,6.87874 6.8787,6.34961 6.8787,15.87402 0,9.52441 -6.8787,15.87402 -6.3496,6.34961 -15.874,6.34961 h -107.4142 v 303.19376 q 0,10.05355 -7.4079,16.93229 -6.8787,6.87874 -16.9323,6.87874 z"
             style="font-family:'Varela Round';-inkscape-font-specification:'Varela Round'"
             id="path370" />
        </g>
      </g>
    </g>
  </g>
</svg>
