<?xml version="1.0" encoding="UTF-8" standalone="no"?>
<svg
   version="1.1"
   id="svg2"
   viewBox="0 0 2038.8549 549.3543"
   height="15.504cm"
   width="57.541cm"
   inkscape:version="1.2.2 (b0a8486541, 2022-12-01)"
   sodipodi:docname="logo_paths.svg"
   inkscape:export-filename="logo.png"
   inkscape:export-xdpi="96"
   inkscape:export-ydpi="96"
   xmlns:inkscape="http://www.inkscape.org/namespaces/inkscape"
   xmlns:sodipodi="http://sodipodi.sourceforge.net/DTD/sodipodi-0.dtd"
   xmlns:xlink="http://www.w3.org/1999/xlink"
   xmlns="http://www.w3.org/2000/svg"
   xmlns:svg="http://www.w3.org/2000/svg"
   xmlns:rdf="http://www.w3.org/1999/02/22-rdf-syntax-ns#"
   xmlns:cc="http://creativecommons.org/ns#"
   xmlns:dc="http://purl.org/dc/elements/1.1/">
  <sodipodi:namedview
     pagecolor="#ffffff"
     bordercolor="#666666"
     borderopacity="1"
     objecttolerance="10"
     gridtolerance="10"
     guidetolerance="10"
     inkscape:pageopacity="0"
     inkscape:pageshadow="2"
     inkscape:window-width="1920"
     inkscape:window-height="1043"
     id="namedview40"
     showgrid="false"
     fit-margin-top="1.5"
     fit-margin-left="1.5"
     fit-margin-right="1.5"
     fit-margin-bottom="1.5"
     inkscape:zoom="0.36388287"
     inkscape:cx="1365.8241"
     inkscape:cy="380.61698"
     inkscape:window-x="1920"
     inkscape:window-y="0"
     inkscape:window-maximized="1"
     inkscape:current-layer="text3339"
     inkscape:pagecheckerboard="0"
     inkscape:document-units="cm"
     inkscape:showpageshadow="0"
     inkscape:deskcolor="#d1d1d1" />
  <defs
     id="defs4">
    <rect
       x="1251.7664"
       y="900.60315"
       width="479.6452"
       height="675.55267"
       id="rect302" />
    <linearGradient
       inkscape:collect="always"
       id="linearGradient60818">
      <stop
         style="stop-color:#ffcc00;stop-opacity:1;"
         offset="0"
         id="stop60814" />
      <stop
         style="stop-color:#ffcc00;stop-opacity:0;"
         offset="1"
         id="stop60816" />
    </linearGradient>
    <linearGradient
       inkscape:collect="always"
       id="linearGradient57616">
      <stop
         style="stop-color:#ce5027;stop-opacity:1;"
         offset="0"
         id="stop57612" />
      <stop
         style="stop-color:#ce5027;stop-opacity:0;"
         offset="1"
         id="stop57614" />
    </linearGradient>
    <linearGradient
       inkscape:collect="always"
       id="linearGradient55606">
      <stop
         style="stop-color:#004082;stop-opacity:1;"
         offset="0"
         id="stop55602" />
      <stop
         style="stop-color:#004082;stop-opacity:0;"
         offset="1"
         id="stop55604" />
    </linearGradient>
    <rect
       x="222.60136"
       y="77.493637"
       width="3497.1028"
       height="684.68878"
       id="rect3341" />
    <linearGradient
       id="linearGradient5816"
       inkscape:swatch="solid">
      <stop
         id="stop5818"
         offset="0"
         style="stop-color:#0066cd;stop-opacity:1;" />
    </linearGradient>
    <linearGradient
       id="linearGradient5810"
       inkscape:swatch="solid">
      <stop
         id="stop5812"
         offset="0"
         style="stop-color:#0066cd;stop-opacity:1;" />
    </linearGradient>
    <linearGradient
       id="linearGradient5800-2"
       inkscape:swatch="solid">
      <stop
         style="stop-color:#004082;stop-opacity:0;"
         offset="0"
         id="stop5808" />
    </linearGradient>
    <linearGradient
       id="linearGradient5800">
      <stop
         id="stop5802"
         offset="0"
         style="stop-color:#004082;stop-opacity:0;" />
    </linearGradient>
    <linearGradient
       id="azul-8"
       inkscape:swatch="solid">
      <stop
         id="stop5796"
         offset="0"
         style="stop-color:#004082;stop-opacity:0;" />
    </linearGradient>
    <linearGradient
       id="linearGradient5788"
       inkscape:swatch="solid">
      <stop
         id="stop5790"
         offset="0"
         style="stop-color:#0066cd;stop-opacity:0;" />
    </linearGradient>
    <radialGradient
       inkscape:collect="always"
       xlink:href="#linearGradient55606"
       id="radialGradient55610"
       cx="70.203407"
       cy="751.98877"
       fx="70.203407"
       fy="751.98877"
       r="52.525475"
       gradientUnits="userSpaceOnUse"
       gradientTransform="matrix(1.4001391,0,0,1.4001391,320.1466,-559.46167)" />
    <radialGradient
       inkscape:collect="always"
       xlink:href="#linearGradient57616"
       id="radialGradient57620"
       cx="1150.0629"
       cy="452.91687"
       fx="1150.0629"
       fy="452.91687"
       r="53.149605"
       gradientUnits="userSpaceOnUse"
       gradientTransform="matrix(1.4024753,0,0,1.4024753,-221.7325,163.72639)" />
    <radialGradient
       inkscape:collect="always"
       xlink:href="#linearGradient60818"
       id="radialGradient60820"
       cx="2447.1047"
       cy="440.59293"
       fx="2447.1047"
       fy="440.59293"
       r="52.525475"
       gradientUnits="userSpaceOnUse"
       gradientTransform="matrix(1.4028729,0,0,1.4028729,-1356.022,-126.92808)" />
  </defs>
  <metadata
     id="metadata7">
    <rdf:RDF>
      <cc:Work
         rdf:about="">
        <dc:format>image/svg+xml</dc:format>
        <dc:type
           rdf:resource="http://purl.org/dc/dcmitype/StillImage" />
      </cc:Work>
    </rdf:RDF>
  </metadata>
  <g
     transform="translate(-147.20793,-417.48116)"
     id="layer1">
    <g
       id="g70941">
      <g
         id="g71262"
         transform="translate(20.625001,18.750001)">
        <path
           id="path4164-6-7-5-3-0"
           style="fill:url(#radialGradient57620);stroke-width:1.73929"
           d="m 1464.8681,798.93109 a 73.66568,73.66568 0 0 1 -73.6657,73.66568 73.66568,73.66568 0 0 1 -73.6657,-73.66568 73.66568,73.66568 0 0 1 73.6657,-73.66568 73.66568,73.66568 0 0 1 73.6657,73.66568 z" />
        <path
           id="path4164-6-7-5-3-7"
           style="fill:url(#radialGradient60820);stroke-width:1.75115"
           d="m 2150.6416,491.16772 a 73.686562,73.686562 0 0 1 -73.6865,73.68657 73.686562,73.686562 0 0 1 -73.6866,-73.68657 73.686562,73.686562 0 0 1 73.6866,-73.68656 73.686562,73.686562 0 0 1 73.6865,73.68656 z" />
        <path
           id="path4164-6-7-5-5-92"
           style="fill:url(#radialGradient55610);stroke-width:1.74774"
           d="m 491.96513,493.42719 a 73.523842,73.542969 0 0 1 -73.52385,73.54296 73.523842,73.542969 0 0 1 -73.52384,-73.54296 73.523842,73.542969 0 0 1 73.52384,-73.54297 73.523842,73.542969 0 0 1 73.52385,73.54297 z" />
        <g
           aria-label="TopoMT"
           transform="matrix(0.93749996,0,0,0.93749996,-67.92985,290.80905)"
           id="text3339"
           style="font-size:529.134px;line-height:125%;letter-spacing:0px;word-spacing:0px;white-space:pre;shape-inside:url(#rect3341);display:inline;stroke-width:1px">
          <path
             d="m 383.45829,561.58568 q -10.05355,0 -16.93229,-6.87874 -6.87874,-6.87874 -6.87874,-16.93229 V 234.58089 H 251.70393 q -9.52441,0 -15.87402,-6.34961 -6.34961,-6.34961 -6.34961,-15.87402 0,-9.52441 6.34961,-15.87402 6.34961,-6.87874 15.87402,-6.87874 h 263.50872 q 9.52441,0 15.87402,6.87874 6.87874,6.34961 6.87874,15.87402 0,9.52441 -6.87874,15.87402 -6.34961,6.34961 -15.87402,6.34961 h -107.4142 v 303.19376 q 0,10.05355 -7.40787,16.93229 -6.87874,6.87874 -16.93229,6.87874 z"
             style="font-family:'Varela Round';-inkscape-font-specification:'Varela Round'"
             id="path354" />
          <path
             d="m 671.83634,564.23135 q -40.74331,0 -71.43308,-17.46142 -30.68977,-17.99056 -47.62206,-49.20946 -16.40316,-31.74804 -16.40316,-73.54962 0,-41.80159 16.40316,-73.02049 16.93229,-31.74804 47.62206,-49.20946 30.68977,-17.99055 71.43308,-17.99055 40.74332,0 70.90395,17.99055 30.68977,17.46142 47.62206,49.20946 16.93229,31.2189 16.93229,73.02049 0,41.80158 -16.93229,73.54962 -16.93229,31.2189 -47.62206,49.20946 -30.16063,17.46142 -70.90395,17.46142 z m 0,-43.91812 q 20.10709,0 40.21418,-9.52441 20.10709,-9.52441 33.33544,-30.68977 13.75749,-21.69449 13.75749,-56.61734 0,-34.92284 -13.75749,-56.0882 -13.22835,-21.16536 -33.33544,-30.16063 -20.10709,-9.52442 -40.21418,-9.52442 -20.10709,0 -40.74331,9.52442 -20.1071,8.99527 -33.33544,30.16063 -13.22835,21.16536 -13.22835,56.0882 0,34.92285 13.22835,56.61734 13.22834,21.16536 33.33544,30.68977 20.63622,9.52441 40.74331,9.52441 z"
             style="font-family:'Varela Round';-inkscape-font-specification:'Varela Round'"
             id="path356" />
          <path
             d="m 898.30561,683.28649 q -10.05355,0 -16.93229,-7.40787 -6.87874,-6.87874 -6.87874,-16.93229 V 310.24704 q 0,-10.05354 6.87874,-16.93228 6.87874,-6.87874 16.93229,-6.87874 10.58268,0 17.46142,6.87874 6.87874,6.87874 6.87874,16.93228 v 13.75749 q 18.51969,-19.04883 40.74331,-29.63151 22.22363,-10.58267 49.73862,-10.58267 32.2771,0 61.3795,16.40315 29.1024,16.40315 47.6221,47.62206 19.0488,31.2189 19.0488,76.19529 0,44.97639 -19.0488,76.19529 -18.5197,31.2189 -47.6221,47.62206 -29.1024,16.40315 -61.3795,16.40315 -27.51499,0 -49.73862,-10.58268 -22.22362,-10.58268 -40.74331,-29.6315 v 134.92916 q 0,10.05355 -6.87874,16.93229 -6.87874,7.40787 -17.46142,7.40787 z M 1006.2489,519.25496 q 37.5685,0 61.9087,-24.34016 24.8693,-24.34016 24.8693,-70.90395 0,-47.09293 -24.8693,-70.90395 -24.3402,-24.34017 -61.9087,-24.34017 -25.92753,0 -47.09289,11.64095 -21.16536,11.11181 -36.51024,28.0441 v 111.11813 q 15.34488,16.93229 36.51024,28.57324 21.16536,11.11181 47.09289,11.11181 z"
             style="font-family:'Varela Round';-inkscape-font-specification:'Varela Round'"
             id="path358" />
          <path
             d="m 1327.4335,564.23135 q -40.7433,0 -71.4331,-17.46142 -30.6897,-17.99056 -47.622,-49.20946 -16.4032,-31.74804 -16.4032,-73.54962 0,-41.80159 16.4032,-73.02049 16.9323,-31.74804 47.622,-49.20946 30.6898,-17.99055 71.4331,-17.99055 40.7433,0 70.904,17.99055 30.6897,17.46142 47.622,49.20946 16.9323,31.2189 16.9323,73.02049 0,41.80158 -16.9323,73.54962 -16.9323,31.2189 -47.622,49.20946 -30.1607,17.46142 -70.904,17.46142 z m 0,-43.91812 q 20.1071,0 40.2142,-9.52441 20.1071,-9.52441 33.3354,-30.68977 13.7575,-21.69449 13.7575,-56.61734 0,-34.92284 -13.7575,-56.0882 -13.2283,-21.16536 -33.3354,-30.16063 -20.1071,-9.52442 -40.2142,-9.52442 -20.1071,0 -40.7433,9.52442 -20.1071,8.99527 -33.3354,30.16063 -13.2284,21.16536 -13.2284,56.0882 0,34.92285 13.2284,56.61734 13.2283,21.16536 33.3354,30.68977 20.6362,9.52441 40.7433,9.52441 z"
             style="font-family:'Varela Round';-inkscape-font-specification:'Varela Round'"
             id="path360" />
          <path
             d="m 1556.0193,561.58568 q -10.0535,0 -16.9322,-6.87874 -6.8788,-6.87874 -6.8788,-16.93229 V 221.88167 q 0,-14.28662 10.0536,-24.34016 10.0535,-10.58268 24.3401,-10.58268 h 17.4614 q 10.5827,0 19.578,6.34961 8.9953,6.3496 12.6992,15.87402 l 120.1134,299.48982 120.1134,-299.48982 q 4.2331,-9.52442 12.6993,-15.87402 8.9952,-6.34961 19.5779,-6.34961 h 17.4614 q 14.2867,0 24.3402,10.58268 10.0535,10.05354 10.0535,24.34016 v 315.89298 q 0,10.05355 -6.8787,16.93229 -6.8787,6.87874 -16.9323,6.87874 -10.0535,0 -17.4614,-6.87874 -6.8787,-6.87874 -6.8787,-16.93229 V 237.22656 l -122.23,302.13549 q -4.2331,10.05355 -13.2283,16.40316 -8.9953,5.82047 -20.6363,5.82047 -11.6409,0 -20.6362,-5.82047 -8.9953,-6.34961 -13.2283,-16.40316 l -122.23,-302.13549 v 300.54809 q 0,10.05355 -7.4079,16.93229 -6.8787,6.87874 -16.9323,6.87874 z"
             style="font-family:'Varela Round';-inkscape-font-specification:'Varela Round'"
             id="path362" />
          <path
             d="m 2152.8822,561.58568 q -10.0535,0 -16.9322,-6.87874 -6.8788,-6.87874 -6.8788,-16.93229 V 234.58089 h -107.9433 q -9.5244,0 -15.874,-6.34961 -6.3496,-6.34961 -6.3496,-15.87402 0,-9.52441 6.3496,-15.87402 6.3496,-6.87874 15.874,-6.87874 h 263.5087 q 9.5244,0 15.874,6.87874 6.8788,6.34961 6.8788,15.87402 0,9.52441 -6.8788,15.87402 -6.3496,6.34961 -15.874,6.34961 h -107.4142 v 303.19376 q 0,10.05355 -7.4079,16.93229 -6.8787,6.87874 -16.9323,6.87874 z"
             style="font-family:'Varela Round';-inkscape-font-specification:'Varela Round'"
             id="path364" />
        </g>
        <g
           transform="matrix(0.93750013,0,0,0.93750013,113.87722,381.27618)"
           id="text300"
           style="font-size:40px;line-height:1.25;letter-spacing:0px;word-spacing:0px;white-space:pre;shape-inside:url(#rect302);display:inline" />
      </g>
    </g>
  </g>
</svg>
