<?xml version="1.0" encoding="UTF-8" standalone="no"?>
<svg
   version="1.1"
   id="svg2"
   viewBox="0 0 2673.8867 459.44551"
   height="12.966574cm"
   width="75.462997cm"
   inkscape:version="1.2.2 (b0a8486541, 2022-12-01)"
   sodipodi:docname="logo_paths.svg"
   inkscape:export-filename="logo.png"
   inkscape:export-xdpi="96"
   inkscape:export-ydpi="96"
   xmlns:inkscape="http://www.inkscape.org/namespaces/inkscape"
   xmlns:sodipodi="http://sodipodi.sourceforge.net/DTD/sodipodi-0.dtd"
   xmlns:xlink="http://www.w3.org/1999/xlink"
   xmlns="http://www.w3.org/2000/svg"
   xmlns:svg="http://www.w3.org/2000/svg"
   xmlns:rdf="http://www.w3.org/1999/02/22-rdf-syntax-ns#"
   xmlns:cc="http://creativecommons.org/ns#"
   xmlns:dc="http://purl.org/dc/elements/1.1/">
  <sodipodi:namedview
     pagecolor="#ffffff"
     bordercolor="#666666"
     borderopacity="1"
     objecttolerance="10"
     gridtolerance="10"
     guidetolerance="10"
     inkscape:pageopacity="0"
     inkscape:pageshadow="2"
     inkscape:window-width="1920"
     inkscape:window-height="1043"
     id="namedview40"
     showgrid="false"
     fit-margin-top="1.5"
     fit-margin-left="1.5"
     fit-margin-right="1.5"
     fit-margin-bottom="1.5"
     inkscape:zoom="0.47584683"
     inkscape:cx="1311.3463"
     inkscape:cy="181.78118"
     inkscape:window-x="1920"
     inkscape:window-y="0"
     inkscape:window-maximized="1"
     inkscape:current-layer="g71262"
     inkscape:pagecheckerboard="0"
     inkscape:document-units="cm"
     inkscape:showpageshadow="0"
     inkscape:deskcolor="#d1d1d1" />
  <defs
     id="defs4">
    <linearGradient
       inkscape:collect="always"
       id="linearGradient60818">
      <stop
         style="stop-color:#ffcc00;stop-opacity:1;"
         offset="0"
         id="stop60814" />
      <stop
         style="stop-color:#ffcc00;stop-opacity:0;"
         offset="1"
         id="stop60816" />
    </linearGradient>
    <linearGradient
       inkscape:collect="always"
       id="linearGradient57616">
      <stop
         style="stop-color:#ce5027;stop-opacity:1;"
         offset="0"
         id="stop57612" />
      <stop
         style="stop-color:#ce5027;stop-opacity:0;"
         offset="1"
         id="stop57614" />
    </linearGradient>
    <linearGradient
       inkscape:collect="always"
       id="linearGradient55606">
      <stop
         style="stop-color:#004082;stop-opacity:1;"
         offset="0"
         id="stop55602" />
      <stop
         style="stop-color:#004082;stop-opacity:0;"
         offset="1"
         id="stop55604" />
    </linearGradient>
    <rect
       x="222.60136"
       y="77.493637"
       width="3245.4387"
       height="971.63617"
       id="rect3341" />
    <linearGradient
       id="linearGradient5816"
       inkscape:swatch="solid">
      <stop
         id="stop5818"
         offset="0"
         style="stop-color:#0066cd;stop-opacity:1;" />
    </linearGradient>
    <linearGradient
       id="linearGradient5810"
       inkscape:swatch="solid">
      <stop
         id="stop5812"
         offset="0"
         style="stop-color:#0066cd;stop-opacity:1;" />
    </linearGradient>
    <linearGradient
       id="linearGradient5800-2"
       inkscape:swatch="solid">
      <stop
         style="stop-color:#004082;stop-opacity:0;"
         offset="0"
         id="stop5808" />
    </linearGradient>
    <linearGradient
       id="linearGradient5800">
      <stop
         id="stop5802"
         offset="0"
         style="stop-color:#004082;stop-opacity:0;" />
    </linearGradient>
    <linearGradient
       id="azul-8"
       inkscape:swatch="solid">
      <stop
         id="stop5796"
         offset="0"
         style="stop-color:#004082;stop-opacity:0;" />
    </linearGradient>
    <linearGradient
       id="linearGradient5788"
       inkscape:swatch="solid">
      <stop
         id="stop5790"
         offset="0"
         style="stop-color:#0066cd;stop-opacity:0;" />
    </linearGradient>
    <radialGradient
       inkscape:collect="always"
       xlink:href="#linearGradient55606"
       id="radialGradient55610"
       cx="70.203407"
       cy="751.98877"
       fx="70.203407"
       fy="751.98877"
       r="52.525475"
       gradientUnits="userSpaceOnUse"
       gradientTransform="matrix(1.4001391,0,0,1.4001391,1045.5803,-284.94471)" />
    <radialGradient
       inkscape:collect="always"
       xlink:href="#linearGradient57616"
       id="radialGradient57620"
       cx="1150.0629"
       cy="452.91687"
       fx="1150.0629"
       fy="452.91687"
       r="53.149605"
       gradientUnits="userSpaceOnUse"
       gradientTransform="matrix(1.4024753,0,0,1.4024753,-1219.2325,-183.14866)" />
    <radialGradient
       inkscape:collect="always"
       xlink:href="#linearGradient60818"
       id="radialGradient60820"
       cx="2447.1047"
       cy="440.59293"
       fx="2447.1047"
       fy="440.59293"
       r="52.525475"
       gradientUnits="userSpaceOnUse"
       gradientTransform="matrix(1.4028729,0,0,1.4028729,-733.522,-162.55311)" />
  </defs>
  <metadata
     id="metadata7">
    <rdf:RDF>
      <cc:Work
         rdf:about="">
        <dc:format>image/svg+xml</dc:format>
        <dc:type
           rdf:resource="http://purl.org/dc/dcmitype/StillImage" />
      </cc:Work>
    </rdf:RDF>
  </metadata>
  <g
     transform="translate(-113.87722,-381.27618)"
     id="layer1">
    <g
       id="g70941">
      <g
         id="g71262">
        <circle
           r="73.66568"
           cy="452.05609"
           cx="393.70239"
           id="path4164-6-7-5-3-0"
           style="fill:url(#radialGradient57620);fill-opacity:1;stroke:none;stroke-width:1.73929;stroke-linejoin:miter;stroke-miterlimit:4;stroke-dasharray:none;stroke-opacity:1" />
        <circle
           r="73.686562"
           cy="455.54272"
           cx="2699.4551"
           id="path4164-6-7-5-3-7"
           style="fill:url(#radialGradient60820);fill-opacity:1;stroke:none;stroke-width:1.75115;stroke-linejoin:miter;stroke-miterlimit:4;stroke-dasharray:none;stroke-opacity:1" />
        <ellipse
           cy="767.94415"
           cx="1143.8749"
           id="path4164-6-7-5-5-92"
           style="fill:url(#radialGradient55610);fill-opacity:1;stroke:none;stroke-width:1.74774;stroke-linejoin:miter;stroke-miterlimit:4;stroke-dasharray:none;stroke-opacity:1"
           rx="73.523842"
           ry="73.542969" />
        <g
           aria-label="ElasNetMT"
           transform="matrix(0.93749996,0,0,0.93749996,-86.67985,255.18405)"
           id="text3339"
           style="font-size:529.134px;line-height:125%;letter-spacing:0px;word-spacing:0px;white-space:pre;shape-inside:url(#rect3341);display:inline;stroke-width:1px">
          <path
             d="m 297.73859,558.94001 q -10.05355,0 -16.93229,-6.87874 -6.87874,-6.87874 -6.87874,-16.93229 V 213.94466 q 0,-10.05354 6.87874,-16.93229 6.87874,-7.40787 16.93229,-7.40787 h 212.18272 q 9.52441,0 15.87402,6.87874 6.87874,6.34961 6.87874,15.87402 0,9.52441 -6.87874,15.87402 -6.34961,6.34961 -15.87402,6.34961 H 322.07875 v 116.9386 h 168.79374 q 9.52441,0 15.87402,6.87875 6.87874,6.3496 6.87874,15.87401 0,9.52442 -6.87874,15.87402 -6.34961,6.34961 -15.87402,6.34961 H 322.07875 v 117.46774 h 187.84256 q 9.52441,0 15.87402,6.87874 6.87874,6.34961 6.87874,15.87402 0,9.52442 -6.87874,15.87402 -6.34961,6.34961 -15.87402,6.34961 z"
             style="font-family:'Varela Round';-inkscape-font-specification:'Varela Round'"
             id="path343" />
          <path
             d="m 625.80191,561.58568 q -10.05354,0 -16.93228,-6.87874 -6.87875,-6.87874 -6.87875,-16.93229 V 194.3667 q 0,-10.58268 6.87875,-17.46142 6.87874,-6.87874 16.93228,-6.87874 10.58268,0 17.46142,6.87874 6.87875,6.87874 6.87875,17.46142 v 343.40795 q 0,10.05355 -6.87875,16.93229 -6.87874,6.87874 -17.46142,6.87874 z"
             style="font-family:'Varela Round';-inkscape-font-specification:'Varela Round'"
             id="path345" />
          <path
             d="m 802.53297,564.23135 q -22.75276,0 -42.85985,-9.52441 -19.57796,-9.52441 -31.74804,-26.98583 -11.64095,-17.99056 -11.64095,-42.85986 0,-37.56851 29.6315,-61.37954 30.16064,-24.34016 92.06932,-24.34016 h 64.02521 v -4.23307 q 0,-35.45198 -17.46142,-50.26773 -17.46143,-15.34488 -53.44254,-15.34488 -22.22362,0 -39.15591,4.23307 -16.40315,3.70394 -31.2189,8.46614 -4.23308,1.05827 -6.87875,1.05827 -7.93701,0 -13.75748,-5.82047 -5.82047,-5.82048 -5.82047,-14.28662 0,-14.28662 13.75748,-20.10709 18.51969,-7.93701 40.74332,-13.22835 22.75276,-5.82047 50.79686,-5.82047 38.62678,0 62.96694,15.34488 24.34016,15.34489 35.98111,39.15591 11.64095,23.81103 11.64095,49.7386 v 149.74491 q 0,10.05355 -7.40788,16.93229 -6.87874,6.87874 -16.93228,6.87874 -10.05355,0 -16.93229,-6.87874 -6.87874,-6.87874 -6.87874,-16.93229 v -13.75748 q -14.28662,14.81575 -38.09765,27.51497 -23.81103,12.69921 -61.37954,12.69921 z m 17.99055,-42.33072 q 24.8693,0 46.56379,-12.17008 21.6945,-12.17008 34.92285,-27.51497 v -44.44725 h -57.67561 q -37.03937,0 -58.73387,9.52441 -21.16536,9.52441 -21.16536,32.27717 0,16.93229 11.64095,29.63151 12.17008,12.69921 44.44725,12.69921 z"
             style="font-family:'Varela Round';-inkscape-font-specification:'Varela Round'"
             id="path347" />
          <path
             d="m 1118.4261,564.23135 q -29.1024,0 -52.9134,-6.34961 -23.2819,-6.3496 -43.389,-17.46142 -8.9953,-6.34961 -8.9953,-17.46142 0,-7.93701 5.8205,-14.28662 5.8205,-6.87874 14.8157,-6.87874 4.7622,0 9.5244,2.11654 14.2867,6.34961 31.219,11.11181 17.4614,4.76221 40.7433,4.76221 30.6897,0 44.4472,-9.52441 14.2866,-10.05355 14.2866,-28.04411 0,-11.64094 -11.6409,-17.99055 -11.1118,-6.34961 -29.6315,-10.58268 -17.9906,-4.76221 -38.0977,-9.52441 -20.107,-5.29134 -38.6267,-13.75748 -17.9906,-8.99528 -29.6315,-23.81103 -11.1119,-15.34489 -11.1119,-39.15592 0,-35.98111 25.9276,-59.79214 25.9276,-23.81102 77.2536,-23.81102 21.6945,0 40.7433,3.70393 19.5779,3.70394 35.9811,9.52441 7.4079,2.11654 11.1118,8.46615 4.2331,5.82047 4.2331,11.64095 0,8.46614 -6.3496,14.81575 -5.8205,6.3496 -14.8158,6.3496 -2.1165,0 -3.7039,0 -1.5874,-0.52913 -3.1748,-1.05826 -12.6992,-4.23308 -28.0441,-6.87875 -14.8158,-2.64567 -32.2772,-2.64567 -29.1024,0 -44.9764,10.58268 -15.874,10.58268 -15.874,26.4567 0,13.75749 11.1118,21.16536 11.641,7.40788 29.6315,12.17008 18.5197,4.23307 38.6268,8.99528 20.6362,4.76221 38.6268,13.75748 18.5197,8.46615 29.6315,23.81103 11.6409,15.34489 11.6409,41.27245 0,32.27717 -25.9275,55.55907 -25.3985,22.75276 -76.1953,22.75276 z"
             style="font-family:'Varela Round';-inkscape-font-specification:'Varela Round'"
             id="path349" />
          <path
             d="m 1312.6182,561.58568 q -10.0536,0 -16.9323,-6.87874 -6.8788,-6.87874 -6.8788,-16.93229 V 221.88167 q 0,-14.28662 10.0536,-24.34016 10.0535,-10.58268 24.3401,-10.58268 h 6.8788 q 8.9953,0 16.4031,4.23307 7.4079,4.23307 12.6993,11.64095 l 203.7165,294.19849 V 211.29899 q 0,-10.05354 6.8788,-16.93229 6.8787,-7.40787 16.9323,-7.40787 10.0535,0 16.9322,7.40787 7.4079,6.87875 7.4079,16.93229 v 315.89298 q 0,14.28662 -10.5827,24.34017 -10.0535,10.05354 -24.3401,10.05354 h -6.3496 q -8.4662,0 -15.874,-3.70394 -7.4079,-4.23307 -12.1701,-10.58268 L 1336.9583,251.51317 v 286.26148 q 0,10.05355 -7.4078,16.93229 -6.8788,6.87874 -16.9323,6.87874 z"
             style="font-family:'Varela Round';-inkscape-font-specification:'Varela Round'"
             id="path351" />
          <path
             d="m 1817.4118,564.23135 q -64.5544,0 -101.0646,-36.51024 -35.9811,-37.03938 -35.9811,-103.71026 0,-35.98111 13.2283,-67.72915 13.2284,-32.27717 41.2725,-52.38426 28.0441,-20.10709 71.9622,-20.10709 40.7433,0 68.7874,19.04882 28.0441,18.51969 42.3307,48.68032 14.8158,30.16064 14.8158,65.61262 0,10.05354 -6.8788,16.93228 -6.3496,6.87874 -17.4614,6.87874 h -179.3764 q 4.2331,35.45198 26.9858,57.14647 22.7528,21.16536 65.6127,21.16536 23.811,0 40.2141,-4.23307 16.4032,-4.7622 31.2189,-12.17008 4.2331,-2.11654 9.5245,-2.11654 8.4661,0 14.8157,5.82048 6.3496,5.82047 6.3496,14.81575 0,6.34961 -4.2331,11.64095 -3.7039,4.7622 -9.5244,7.93701 -17.4614,10.05354 -38.0976,16.93228 -20.1071,6.34961 -54.5008,6.34961 z m -88.3654,-162.44413 h 156.0945 q -1.5874,-27.51497 -14.2866,-44.44725 -12.1701,-16.93229 -29.6315,-24.8693 -17.4614,-7.93701 -34.3937,-7.93701 -16.9323,0 -34.3937,7.93701 -17.4614,7.93701 -29.6315,24.8693 -12.1701,16.93228 -13.7575,44.44725 z"
             style="font-family:'Varela Round';-inkscape-font-specification:'Varela Round'"
             id="path353" />
          <path
             d="m 2089.3866,564.23135 q -9.5245,0 -22.7528,-2.11654 -12.6992,-1.5874 -25.3984,-7.93701 -12.1701,-6.87874 -20.6363,-21.16535 -8.4661,-14.28662 -8.4661,-38.62678 V 330.35413 h -37.5685 q -10.0536,0 -10.0536,-10.05354 0,-5.29134 4.7622,-8.99528 l 71.9623,-70.37482 q 1.0582,-1.05826 3.1748,-2.64567 2.6456,-2.11653 5.8204,-2.11653 4.2331,0 6.8788,3.1748 3.1748,3.17481 3.1748,7.40788 v 42.33071 h 59.7921 q 8.9953,0 14.8158,5.82048 5.8205,5.82047 5.8205,14.81575 0,8.46614 -5.8205,14.81575 -5.8205,5.82047 -14.8158,5.82047 h -59.7921 v 159.79846 q 0,15.34489 5.8205,22.22363 5.8204,6.87874 13.7574,8.46614 8.4662,1.05827 14.8158,1.05827 12.6992,0 18.5197,-2.11653 6.3496,-2.64567 13.2283,-2.64567 7.4079,0 13.2284,5.29134 5.8205,5.29134 5.8205,13.75748 0,12.17008 -12.1701,18.51969 -9.5244,4.23307 -20.6362,6.87874 -10.5827,2.64567 -23.2819,2.64567 z"
             style="font-family:'Varela Round';-inkscape-font-specification:'Varela Round'"
             id="path355" />
          <path
             d="m 2231.7237,561.58568 q -10.0536,0 -16.9323,-6.87874 -6.8787,-6.87874 -6.8787,-16.93229 V 221.88167 q 0,-14.28662 10.0535,-24.34016 10.0536,-10.58268 24.3402,-10.58268 h 17.4614 q 10.5827,0 19.578,6.34961 8.9952,6.3496 12.6992,15.87402 l 120.1134,299.48982 120.1134,-299.48982 q 4.2331,-9.52442 12.6992,-15.87402 8.9953,-6.34961 19.578,-6.34961 h 17.4614 q 14.2866,0 24.3401,10.58268 10.0536,10.05354 10.0536,24.34016 v 315.89298 q 0,10.05355 -6.8787,16.93229 -6.8788,6.87874 -16.9323,6.87874 -10.0536,0 -17.4615,-6.87874 -6.8787,-6.87874 -6.8787,-16.93229 V 237.22656 L 2446.023,539.36205 q -4.2331,10.05355 -13.2284,16.40316 -8.9953,5.82047 -20.6362,5.82047 -11.641,0 -20.6362,-5.82047 -8.9953,-6.34961 -13.2284,-16.40316 L 2256.0639,237.22656 v 300.54809 q 0,10.05355 -7.4079,16.93229 -6.8788,6.87874 -16.9323,6.87874 z"
             style="font-family:'Varela Round';-inkscape-font-specification:'Varela Round'"
             id="path357" />
          <path
             d="m 2828.5865,561.58568 q -10.0536,0 -16.9323,-6.87874 -6.8788,-6.87874 -6.8788,-16.93229 V 234.58089 h -107.9433 q -9.5244,0 -15.874,-6.34961 -6.3496,-6.34961 -6.3496,-15.87402 0,-9.52441 6.3496,-15.87402 6.3496,-6.87874 15.874,-6.87874 h 263.5087 q 9.5244,0 15.874,6.87874 6.8788,6.34961 6.8788,15.87402 0,9.52441 -6.8788,15.87402 -6.3496,6.34961 -15.874,6.34961 h -107.4142 v 303.19376 q 0,10.05355 -7.4078,16.93229 -6.8788,6.87874 -16.9323,6.87874 z"
             style="font-family:'Varela Round';-inkscape-font-specification:'Varela Round'"
             id="path359" />
        </g>
      </g>
    </g>
  </g>
</svg>
