<?xml version="1.0" encoding="UTF-8" standalone="no"?>
<!-- Created with Inkscape (http://www.inkscape.org/) -->

<svg
   width="20.401024cm"
   height="26.675898cm"
   viewBox="0 0 722.87092 945.20894"
   id="svg2"
   version="1.1"
   inkscape:version="1.2.2 (b0a8486541, 2022-12-01)"
   sodipodi:docname="LogoUIBCDF_vert_path.svg"
   inkscape:export-filename="/home/diego/Myusr/src/UIBCDFGitHub/Logos/UIBCDF/LogoUIBCDF_vertical.png"
   inkscape:export-xdpi="300"
   inkscape:export-ydpi="300"
   xmlns:inkscape="http://www.inkscape.org/namespaces/inkscape"
   xmlns:sodipodi="http://sodipodi.sourceforge.net/DTD/sodipodi-0.dtd"
   xmlns="http://www.w3.org/2000/svg"
   xmlns:svg="http://www.w3.org/2000/svg"
   xmlns:rdf="http://www.w3.org/1999/02/22-rdf-syntax-ns#"
   xmlns:cc="http://creativecommons.org/ns#"
   xmlns:dc="http://purl.org/dc/elements/1.1/">
  <defs
     id="defs4">
    <linearGradient
       id="linearGradient5816"
       inkscape:swatch="solid">
      <stop
         style="stop-color:#0066cd;stop-opacity:1;"
         offset="0"
         id="stop5818" />
    </linearGradient>
    <linearGradient
       id="linearGradient5810"
       inkscape:swatch="solid">
      <stop
         style="stop-color:#0066cd;stop-opacity:1;"
         offset="0"
         id="stop5812" />
    </linearGradient>
    <linearGradient
       id="linearGradient5800-2"
       inkscape:swatch="solid">
      <stop
         id="stop5808"
         offset="0"
         style="stop-color:#004082;stop-opacity:0;" />
    </linearGradient>
    <linearGradient
       id="linearGradient5800">
      <stop
         style="stop-color:#004082;stop-opacity:0;"
         offset="0"
         id="stop5802" />
    </linearGradient>
    <linearGradient
       id="azul-8"
       inkscape:swatch="solid">
      <stop
         style="stop-color:#004082;stop-opacity:0;"
         offset="0"
         id="stop5796" />
    </linearGradient>
    <linearGradient
       id="linearGradient5788"
       inkscape:swatch="solid">
      <stop
         style="stop-color:#0066cd;stop-opacity:0;"
         offset="0"
         id="stop5790" />
    </linearGradient>
  </defs>
  <sodipodi:namedview
     id="base"
     pagecolor="#ffffff"
     bordercolor="#666666"
     borderopacity="1.0"
     inkscape:pageopacity="0.0"
     inkscape:pageshadow="2"
     inkscape:zoom="0.39"
     inkscape:cx="782.05128"
     inkscape:cy="675.64103"
     inkscape:document-units="cm"
     inkscape:current-layer="layer1"
     showgrid="false"
     units="cm"
     showguides="true"
     inkscape:guide-bbox="true"
     showborder="true"
     inkscape:window-width="1920"
     inkscape:window-height="1043"
     inkscape:window-x="0"
     inkscape:window-y="0"
     inkscape:window-maximized="1"
     fit-margin-top="0.2"
     fit-margin-left="0.2"
     fit-margin-right="0.2"
     fit-margin-bottom="0.4"
     inkscape:showpageshadow="0"
     inkscape:pagecheckerboard="0"
     inkscape:deskcolor="#d1d1d1" />
  <metadata
     id="metadata7">
    <rdf:RDF>
      <cc:Work
         rdf:about="">
        <dc:format>image/svg+xml</dc:format>
        <dc:type
           rdf:resource="http://purl.org/dc/dcmitype/StillImage" />
      </cc:Work>
    </rdf:RDF>
  </metadata>
  <g
     inkscape:label="Layer 1"
     inkscape:groupmode="layer"
     id="layer1"
     transform="translate(363.22184,-265.68408)">
    <rect
       style="fill:none;fill-rule:evenodd;stroke:none;stroke-width:1.02755904;stroke-linecap:butt;stroke-linejoin:miter;stroke-miterlimit:4;stroke-dasharray:none;stroke-opacity:1"
       id="rect3336"
       width="708.69769"
       height="709.66852"
       x="-356.13522"
       y="272.77069" />
    <circle
       style="fill:#004082;fill-opacity:1;fill-rule:nonzero;stroke:none;stroke-width:1.24826133;stroke-linejoin:miter;stroke-miterlimit:4;stroke-dasharray:none;stroke-opacity:1"
       id="path4164"
       cx="-286.26773"
       cy="910.63"
       r="52.525475" />
    <circle
       style="fill:#004082;fill-opacity:1;stroke:none;stroke-width:1.24826133;stroke-linejoin:miter;stroke-miterlimit:4;stroke-dasharray:none;stroke-opacity:1"
       id="path4164-6"
       cx="-286.26773"
       cy="768.89771"
       r="52.525475" />
    <circle
       style="fill:#004082;fill-opacity:1;stroke:none;stroke-width:1.24826133;stroke-linejoin:miter;stroke-miterlimit:4;stroke-dasharray:none;stroke-opacity:1"
       id="path4164-62"
       cx="-144.53543"
       cy="910.63"
       r="52.525475" />
    <circle
       style="fill:#ffcc00;fill-opacity:1;stroke:none;stroke-width:1.24826133;stroke-linejoin:miter;stroke-miterlimit:4;stroke-dasharray:none;stroke-opacity:1"
       id="path4164-6-9"
       cx="-144.53543"
       cy="768.89771"
       r="52.525475" />
    <circle
       style="fill:#004082;fill-opacity:1;stroke:none;stroke-width:1.24826133;stroke-linejoin:miter;stroke-miterlimit:4;stroke-dasharray:none;stroke-opacity:1"
       id="path4164-0"
       cx="-2.8031616"
       cy="910.63"
       r="52.525475" />
    <circle
       style="fill:#ce5027;fill-opacity:1;stroke:#f07844;stroke-width:1.24826133;stroke-linejoin:miter;stroke-miterlimit:4;stroke-dasharray:none;stroke-opacity:1"
       id="path4164-6-93"
       cx="-2.8031616"
       cy="768.89771"
       r="52.525475" />
    <circle
       style="fill:#ffcc00;fill-opacity:1;stroke:none;stroke-width:1.24826133;stroke-linejoin:miter;stroke-miterlimit:4;stroke-dasharray:none;stroke-opacity:1"
       id="path4164-6-7-6"
       cx="-2.8031616"
       cy="627.16541"
       r="52.525475" />
    <circle
       style="fill:#ce5027;fill-opacity:1;stroke:#f07844;stroke-width:1.24826133;stroke-linejoin:miter;stroke-miterlimit:4;stroke-dasharray:none;stroke-opacity:1"
       id="path4164-6-7-5-3-0"
       cx="-2.8031616"
       cy="485.43314"
       r="52.525475" />
    <circle
       style="fill:#004082;fill-opacity:1;stroke:none;stroke-width:1.24826133;stroke-linejoin:miter;stroke-miterlimit:4;stroke-dasharray:none;stroke-opacity:1"
       id="path4164-2"
       cx="138.92914"
       cy="910.63"
       r="52.525475" />
    <circle
       style="fill:#004082;fill-opacity:1;stroke:none;stroke-width:1.24826133;stroke-linejoin:miter;stroke-miterlimit:4;stroke-dasharray:none;stroke-opacity:1"
       id="path4164-6-6"
       cx="138.92914"
       cy="768.89771"
       r="52.525475" />
    <circle
       style="fill:#004082;fill-opacity:1;stroke:none;stroke-width:1.24826133;stroke-linejoin:miter;stroke-miterlimit:4;stroke-dasharray:none;stroke-opacity:1"
       id="path4164-6-7-18"
       cx="138.92914"
       cy="627.16541"
       r="52.525475" />
    <circle
       style="fill:#ffcc00;fill-opacity:1;stroke:none;stroke-width:1.24826133;stroke-linejoin:miter;stroke-miterlimit:4;stroke-dasharray:none;stroke-opacity:1"
       id="path4164-6-7-5-3-7"
       cx="138.92914"
       cy="485.43314"
       r="52.525475" />
    <circle
       style="fill:#004082;fill-opacity:1;stroke:none;stroke-width:1.24826133;stroke-linejoin:miter;stroke-miterlimit:4;stroke-dasharray:none;stroke-opacity:1"
       id="path4164-20"
       cx="280.66144"
       cy="910.63"
       r="52.525475" />
    <circle
       style="fill:#004082;fill-opacity:1;stroke:none;stroke-width:1.24826133;stroke-linejoin:miter;stroke-miterlimit:4;stroke-dasharray:none;stroke-opacity:1"
       id="path4164-6-2"
       cx="280.66144"
       cy="768.89771"
       r="52.525475" />
    <circle
       style="fill:#004082;fill-opacity:1;stroke:none;stroke-width:1.24826133;stroke-linejoin:miter;stroke-miterlimit:4;stroke-dasharray:none;stroke-opacity:1"
       id="path4164-6-7-3"
       cx="280.66144"
       cy="627.16541"
       r="52.525475" />
    <circle
       style="fill:#004082;fill-opacity:1;stroke:none;stroke-width:1.24826133;stroke-linejoin:miter;stroke-miterlimit:4;stroke-dasharray:none;stroke-opacity:1"
       id="path4164-6-7-5-3-75"
       cx="280.66144"
       cy="485.43317"
       r="52.525475" />
    <circle
       style="fill:#004082;fill-opacity:1;stroke:none;stroke-width:1.24826133;stroke-linejoin:miter;stroke-miterlimit:4;stroke-dasharray:none;stroke-opacity:1"
       id="path4164-6-7-5-5-92"
       cx="280.66144"
       cy="343.7009"
       r="52.525475" />
    <g
       aria-label="UIBCDF"
       transform="matrix(0.67403529,0,0,0.9068811,-954.6404,887.28313)"
       id="flowRoot5824"
       style="line-height:0.01%;letter-spacing:0px;word-spacing:0px;fill:#004082;stroke-width:1px">
      <path
         d="m 998.65313,279.02539 q 10.03747,0 18.01247,-3.3 7.975,-3.4375 13.475,-9.625 5.5,-6.1875 8.3875,-14.9875 2.8875,-8.8 2.8875,-19.8 v -118.8 h 41.25 v 118.8 q 0,18.15 -5.9125,33.4125 -5.775,15.125 -16.6375,26.125 -10.8625,11 -26.4,17.1875 -15.5375,6.1875 -35.06247,6.1875 -19.52501,0 -35.20001,-6.1875 -15.5375,-6.1875 -26.39999,-17.1875 -10.86251,-11 -16.775,-26.125 -5.77501,-15.2625 -5.77501,-33.4125 v -118.8 h 41.25 v 118.8 q 0,11 2.8875,19.8 2.88751,8.8 8.38751,14.9875 5.5,6.1875 13.47499,9.625 7.975,3.3 18.15001,3.3 z"
         style="font-weight:800;font-size:275px;line-height:1.25;font-family:Lato;-inkscape-font-specification:'Lato Ultra-Bold'"
         id="path356" />
      <path
         d="m 1163.5158,312.02539 h -41.525 v -199.5125 h 41.525 z"
         style="font-weight:800;font-size:275px;line-height:1.25;font-family:Lato;-inkscape-font-specification:'Lato Ultra-Bold'"
         id="path358" />
      <path
         d="m 1281.9031,280.40039 q 9.9,0 16.225,-2.3375 6.4625,-2.475 10.3125,-6.4625 3.85,-3.9875 5.3625,-9.075 1.5125,-5.225 1.5125,-10.725 0,-6.05 -1.7875,-10.8625 -1.7875,-4.8125 -5.775,-8.1125 -3.9875,-3.4375 -10.45,-5.225 -6.325,-1.7875 -15.675,-1.7875 h -35.0625 v 54.5875 z m -35.3375,-136.5375 v 53.9 h 27.0875 q 8.6625,0 15.4,-1.375 6.7375,-1.5125 11.275,-4.675 4.5375,-3.1625 6.875,-8.25 2.475,-5.225 2.475,-12.5125 0,-7.425 -2.0625,-12.65 -1.925,-5.225 -6.05,-8.3875 -4.125,-3.1625 -10.45,-4.5375 -6.325,-1.5125 -14.9875,-1.5125 z m 29.5625,-31.35 q 20.075,0 34.2375,3.85 14.3,3.7125 23.2375,10.725 9.075,6.875 13.2,16.775 4.125,9.9 4.125,22.1375 0,6.875 -2.0625,13.2 -1.925,6.325 -6.1875,11.9625 -4.125,5.5 -10.725,10.0375 -6.6,4.5375 -15.675,7.7 20.35,4.8125 30.1125,15.675 9.7625,10.8625 9.7625,28.1875 0,12.65 -4.95,23.5125 -4.8125,10.8625 -14.1625,18.8375 -9.35,7.975 -23.1,12.5125 -13.6125,4.4 -31.35,4.4 h -77.275 v -199.5125 z"
         style="font-weight:800;font-size:275px;line-height:1.25;font-family:Lato;-inkscape-font-specification:'Lato Ultra-Bold'"
         id="path360" />
      <path
         d="m 1523.6281,262.93789 q 3.4375,0 5.775,2.475 l 16.3625,17.4625 q -12.1,15.4 -30.1125,23.375 -17.875,7.975 -42.625,7.975 -22.4125,0 -40.2875,-7.5625 -17.875,-7.7 -30.3875,-21.3125 -12.5125,-13.6125 -19.25,-32.3125 -6.7375,-18.7 -6.7375,-40.8375 0,-14.85 3.1625,-28.1875 3.3,-13.475 9.4875,-24.75 6.1875,-11.275 14.85,-20.35 8.8,-9.075 19.8,-15.4 11,-6.4625 23.925,-9.7625 13.0625,-3.4375 27.775,-3.4375 11,0 20.7625,1.925 9.9,1.925 18.425,5.3625 8.525,3.4375 15.675,8.3875 7.2875,4.8125 13.0625,10.5875 l -13.8875,18.975 q -1.2375,1.7875 -3.1625,3.1625 -1.925,1.375 -5.225,1.375 -3.3,0 -6.7375,-2.3375 -3.3,-2.3375 -8.25,-5.225 -4.8125,-2.8875 -12.2375,-5.225 -7.2875,-2.3375 -18.5625,-2.3375 -12.5125,0 -22.9625,4.5375 -10.45,4.5375 -18.0125,13.2 -7.425,8.525 -11.55,21.0375 -4.125,12.5125 -4.125,28.4625 0,16.0875 4.4,28.7375 4.5375,12.5125 12.2375,21.175 7.8375,8.6625 18.15,13.2 10.45,4.4 22.275,4.4 7.0125,0 12.65,-0.6875 5.775,-0.6875 10.5875,-2.3375 4.95,-1.65 9.2125,-4.2625 4.4,-2.6125 8.8,-6.6 1.5125,-1.2375 3.1625,-2.0625 1.65,-0.825 3.575,-0.825 z"
         style="font-weight:800;font-size:275px;line-height:1.25;font-family:Lato;-inkscape-font-specification:'Lato Ultra-Bold'"
         id="path362" />
      <path
         d="m 1747.8907,212.20039 q 0,21.8625 -7.425,40.2875 -7.2875,18.2875 -20.7625,31.4875 -13.3375,13.2 -32.175,20.625 -18.8375,7.425 -41.8,7.425 h -76.725 v -199.5125 h 76.725 q 22.9625,0 41.8,7.425 18.8375,7.425 32.175,20.7625 13.475,13.2 20.7625,31.4875 7.425,18.2875 7.425,40.0125 z m -42.35,0 q 0,-15.675 -4.125,-28.1875 -4.125,-12.5125 -11.825,-21.175 -7.7,-8.6625 -18.8375,-13.3375 -11,-4.675 -25.025,-4.675 h -35.2 v 134.8875 h 35.2 q 14.025,0 25.025,-4.5375 11.1375,-4.675 18.8375,-13.3375 7.7,-8.8 11.825,-21.3125 4.125,-12.5125 4.125,-28.325 z"
         style="font-weight:800;font-size:275px;line-height:1.25;font-family:Lato;-inkscape-font-specification:'Lato Ultra-Bold'"
         id="path364" />
      <path
         d="m 1819.8031,144.82539 v 55.1375 h 71.775 v 32.45 h -71.775 v 79.6125 h -41.525 v -199.5125 h 127.05 v 32.3125 z"
         style="font-weight:800;font-size:275px;line-height:1.25;font-family:Lato;-inkscape-font-specification:'Lato Ultra-Bold'"
         id="path366" />
    </g>
  </g>
</svg>
