<?xml version="1.0" encoding="UTF-8" standalone="no"?>
<svg
   version="1.1"
   id="svg2"
   viewBox="0 0 2104.4404 502.5118"
   height="14.182cm"
   width="59.391998cm"
   inkscape:version="1.2.2 (b0a8486541, 2022-12-01)"
   sodipodi:docname="logo.svg"
   inkscape:export-filename="logo.png"
   inkscape:export-xdpi="96"
   inkscape:export-ydpi="96"
   xmlns:inkscape="http://www.inkscape.org/namespaces/inkscape"
   xmlns:sodipodi="http://sodipodi.sourceforge.net/DTD/sodipodi-0.dtd"
   xmlns:xlink="http://www.w3.org/1999/xlink"
   xmlns="http://www.w3.org/2000/svg"
   xmlns:svg="http://www.w3.org/2000/svg"
   xmlns:rdf="http://www.w3.org/1999/02/22-rdf-syntax-ns#"
   xmlns:cc="http://creativecommons.org/ns#"
   xmlns:dc="http://purl.org/dc/elements/1.1/">
  <sodipodi:namedview
     pagecolor="#ffffff"
     bordercolor="#666666"
     borderopacity="1"
     objecttolerance="10"
     gridtolerance="10"
     guidetolerance="10"
     inkscape:pageopacity="0"
     inkscape:pageshadow="2"
     inkscape:window-width="1452"
     inkscape:window-height="773"
     id="namedview40"
     showgrid="false"
     fit-margin-top="1.5"
     fit-margin-left="1.5"
     fit-margin-right="1.5"
     fit-margin-bottom="1.5"
     inkscape:zoom="0.47584683"
     inkscape:cx="882.63696"
     inkscape:cy="228.01455"
     inkscape:window-x="249"
     inkscape:window-y="88"
     inkscape:window-maximized="0"
     inkscape:current-layer="text3339"
     inkscape:pagecheckerboard="0"
     inkscape:document-units="cm"
     inkscape:showpageshadow="0"
     inkscape:deskcolor="#d1d1d1" />
  <defs
     id="defs4">
    <linearGradient
       inkscape:collect="always"
       id="linearGradient60818">
      <stop
         style="stop-color:#ffcc00;stop-opacity:1;"
         offset="0"
         id="stop60814" />
      <stop
         style="stop-color:#ffcc00;stop-opacity:0;"
         offset="1"
         id="stop60816" />
    </linearGradient>
    <linearGradient
       inkscape:collect="always"
       id="linearGradient57616">
      <stop
         style="stop-color:#ce5027;stop-opacity:1;"
         offset="0"
         id="stop57612" />
      <stop
         style="stop-color:#ce5027;stop-opacity:0;"
         offset="1"
         id="stop57614" />
    </linearGradient>
    <linearGradient
       inkscape:collect="always"
       id="linearGradient55606">
      <stop
         style="stop-color:#004082;stop-opacity:1;"
         offset="0"
         id="stop55602" />
      <stop
         style="stop-color:#004082;stop-opacity:0;"
         offset="1"
         id="stop55604" />
    </linearGradient>
    <rect
       x="222.60136"
       y="77.493637"
       width="3245.4387"
       height="971.63617"
       id="rect3341" />
    <linearGradient
       id="linearGradient5816"
       inkscape:swatch="solid">
      <stop
         id="stop5818"
         offset="0"
         style="stop-color:#0066cd;stop-opacity:1;" />
    </linearGradient>
    <linearGradient
       id="linearGradient5810"
       inkscape:swatch="solid">
      <stop
         id="stop5812"
         offset="0"
         style="stop-color:#0066cd;stop-opacity:1;" />
    </linearGradient>
    <linearGradient
       id="linearGradient5800-2"
       inkscape:swatch="solid">
      <stop
         style="stop-color:#004082;stop-opacity:0;"
         offset="0"
         id="stop5808" />
    </linearGradient>
    <linearGradient
       id="linearGradient5800">
      <stop
         id="stop5802"
         offset="0"
         style="stop-color:#004082;stop-opacity:0;" />
    </linearGradient>
    <linearGradient
       id="azul-8"
       inkscape:swatch="solid">
      <stop
         id="stop5796"
         offset="0"
         style="stop-color:#004082;stop-opacity:0;" />
    </linearGradient>
    <linearGradient
       id="linearGradient5788"
       inkscape:swatch="solid">
      <stop
         id="stop5790"
         offset="0"
         style="stop-color:#0066cd;stop-opacity:0;" />
    </linearGradient>
    <radialGradient
       inkscape:collect="always"
       xlink:href="#linearGradient55606"
       id="radialGradient55610"
       cx="70.203407"
       cy="751.98877"
       fx="70.203407"
       fy="751.98877"
       r="52.525475"
       gradientUnits="userSpaceOnUse"
       gradientTransform="matrix(1.4001391,0,0,1.4001391,1780.5802,-429.31971)" />
    <radialGradient
       inkscape:collect="always"
       xlink:href="#linearGradient57616"
       id="radialGradient57620"
       cx="1150.0629"
       cy="452.91687"
       fx="1150.0629"
       fy="452.91687"
       r="53.149605"
       gradientUnits="userSpaceOnUse"
       gradientTransform="matrix(1.4024753,0,0,1.4024753,-465.4825,-123.14862)" />
    <radialGradient
       inkscape:collect="always"
       xlink:href="#linearGradient60818"
       id="radialGradient60820"
       cx="2447.1047"
       cy="440.59293"
       fx="2447.1047"
       fy="440.59293"
       r="52.525475"
       gradientUnits="userSpaceOnUse"
       gradientTransform="matrix(1.4028729,0,0,1.4028729,-3375.0682,93.856972)" />
  </defs>
  <metadata
     id="metadata7">
    <rdf:RDF>
      <cc:Work
         rdf:about="">
        <dc:format>image/svg+xml</dc:format>
        <dc:type
           rdf:resource="http://purl.org/dc/dcmitype/StillImage" />
      </cc:Work>
    </rdf:RDF>
  </metadata>
  <g
     transform="translate(55.298645,-328.99084)"
     id="layer1">
    <g
       id="g70941">
      <g
         id="g71262">
        <circle
           r="73.66568"
           cy="512.05609"
           cx="1147.4524"
           id="path4164-6-7-5-3-0"
           style="fill:url(#radialGradient57620);fill-opacity:1;stroke:none;stroke-width:1.73929;stroke-linejoin:miter;stroke-miterlimit:4;stroke-dasharray:none;stroke-opacity:1" />
        <circle
           r="73.686562"
           cy="711.95282"
           cx="57.908867"
           id="path4164-6-7-5-3-7"
           style="fill:url(#radialGradient60820);fill-opacity:1;stroke:none;stroke-width:1.75115;stroke-linejoin:miter;stroke-miterlimit:4;stroke-dasharray:none;stroke-opacity:1" />
        <ellipse
           cy="623.56915"
           cx="1878.8748"
           id="path4164-6-7-5-5-92"
           style="fill:url(#radialGradient55610);fill-opacity:1;stroke:none;stroke-width:1.74774;stroke-linejoin:miter;stroke-miterlimit:4;stroke-dasharray:none;stroke-opacity:1"
           rx="73.523842"
           ry="73.542969" />
        <g
           aria-label="Sabueso"
           transform="matrix(0.93749996,0,0,0.93749996,-199.17985,225.18405)"
           id="text3339"
           style="font-size:529.134px;line-height:125%;letter-spacing:0px;word-spacing:0px;white-space:pre;shape-inside:url(#rect3341);stroke-width:1px">
          <path
             d="m 390.33703,564.23135 q -39.68505,0 -71.43308,-7.40788 -31.21891,-7.937 -54.5008,-17.99055 -5.82048,-2.64567 -10.58268,-8.46614 -4.23307,-6.34961 -4.23307,-13.22835 0,-8.99528 5.82047,-15.34489 5.82047,-6.87874 15.87402,-6.87874 5.29134,0 10.05354,2.11654 17.99056,7.93701 43.91812,14.81575 26.4567,6.87874 60.32128,6.87874 26.45669,0 47.09292,-5.29134 21.16536,-5.82047 33.33544,-19.04882 12.17008,-13.75749 12.17008,-36.51025 0,-16.93229 -12.17008,-26.98583 -12.17008,-10.58268 -32.27717,-17.46142 -20.10709,-6.87874 -44.44726,-12.69922 -23.81103,-5.82047 -47.62205,-12.69921 -23.81103,-7.40788 -43.91812,-19.04883 -20.10709,-11.64094 -32.27718,-29.6315 -12.17008,-18.51969 -12.17008,-46.56379 0,-29.6315 15.34489,-53.97166 15.87402,-24.8693 46.56379,-39.68505 30.68977,-14.81575 75.13702,-14.81575 31.21891,0 57.6756,4.7622 26.4567,4.76221 47.62206,12.69922 5.82048,2.11654 10.05355,6.87874 4.7622,4.76221 4.7622,14.28662 0,7.93701 -5.82047,15.34488 -5.29134,6.87875 -15.34489,6.87875 -2.11653,0 -4.23307,-0.52914 -2.11653,-1.05827 -4.23307,-1.5874 -17.99055,-6.34961 -39.68505,-10.05355 -21.16536,-4.23307 -45.50552,-4.23307 -40.21418,0 -67.20001,15.34489 -26.98584,15.34488 -26.98584,44.97638 0,19.57796 12.17009,31.21891 12.17008,11.64095 32.27717,18.51969 20.10709,6.87874 43.91812,12.69921 23.81103,5.29134 47.62206,12.17008 23.81102,6.87875 43.91811,18.51969 20.1071,11.11182 32.27718,30.16064 12.17008,18.51969 12.17008,48.68033 0,29.6315 -16.93229,53.44253 -16.40315,23.28189 -47.09292,36.51024 -30.16064,13.22835 -71.43309,13.22835 z"
             style="font-family:'Varela Round';-inkscape-font-specification:'Varela Round'"
             id="path352" />
          <path
             d="m 659.13667,564.23135 q -22.75276,0 -42.85985,-9.52441 -19.57796,-9.52441 -31.74804,-26.98583 -11.64095,-17.99056 -11.64095,-42.85986 0,-37.56851 29.6315,-61.37954 30.16064,-24.34016 92.06931,-24.34016 h 64.02522 v -4.23307 q 0,-35.45198 -17.46143,-50.26773 -17.46142,-15.34488 -53.44253,-15.34488 -22.22362,0 -39.15591,4.23307 -16.40315,3.70394 -31.21891,8.46614 -4.23307,1.05827 -6.87874,1.05827 -7.93701,0 -13.75748,-5.82047 -5.82047,-5.82048 -5.82047,-14.28662 0,-14.28662 13.75748,-20.10709 18.51969,-7.93701 40.74332,-13.22835 22.75276,-5.82047 50.79686,-5.82047 38.62678,0 62.96694,15.34488 24.34016,15.34489 35.98111,39.15591 11.64095,23.81103 11.64095,49.7386 v 149.74491 q 0,10.05355 -7.40788,16.93229 -6.87874,6.87874 -16.93229,6.87874 -10.05354,0 -16.93228,-6.87874 -6.87874,-6.87874 -6.87874,-16.93229 v -13.75748 q -14.28662,14.81575 -38.09765,27.51497 -23.81103,12.69921 -61.37954,12.69921 z m 17.99055,-42.33072 q 24.8693,0 46.56379,-12.17008 21.6945,-12.17008 34.92285,-27.51497 v -44.44725 h -57.67561 q -37.03938,0 -58.73387,9.52441 -21.16536,9.52441 -21.16536,32.27717 0,16.93229 11.64095,29.63151 12.17008,12.69921 44.44725,12.69921 z"
             style="font-family:'Varela Round';-inkscape-font-specification:'Varela Round'"
             id="path354" />
          <path
             d="m 1026.3558,564.23135 q -27.51494,0 -49.73857,-10.58268 -22.22362,-10.58268 -40.74331,-29.6315 v 13.75748 q 0,10.05355 -6.87874,16.93229 -6.87875,6.87874 -17.46142,6.87874 -10.05355,0 -16.93229,-6.87874 -6.87874,-6.87874 -6.87874,-16.93229 V 194.3667 q 0,-10.58268 6.87874,-17.46142 6.87874,-6.87874 16.93229,-6.87874 10.58267,0 17.46142,6.87874 6.87874,6.87874 6.87874,17.46142 v 129.63783 q 18.51969,-19.04883 40.74331,-29.63151 22.22363,-10.58267 49.73857,-10.58267 32.2772,0 61.3796,16.40315 29.1023,16.40315 47.622,47.62206 19.0488,31.2189 19.0488,76.19529 0,44.97639 -19.0488,76.19529 -18.5197,31.2189 -47.622,47.62206 -29.1024,16.40315 -61.3796,16.40315 z m -6.8787,-44.97639 q 37.5685,0 61.9087,-24.34016 24.8693,-24.34016 24.8693,-70.90395 0,-47.09293 -24.8693,-70.90395 -24.3402,-24.34017 -61.9087,-24.34017 -25.92758,0 -47.09294,11.64095 -21.16536,11.11181 -36.51024,28.0441 v 111.11813 q 15.34488,16.93229 36.51024,28.57324 21.16536,11.11181 47.09294,11.11181 z"
             style="font-family:'Varela Round';-inkscape-font-specification:'Varela Round'"
             id="path356" />
          <path
             d="m 1313.6758,564.23135 q -30.1606,0 -51.326,-13.75748 -21.1653,-14.28662 -32.2771,-38.09765 -11.1119,-23.81103 -11.1119,-51.85513 V 310.24704 q 0,-10.05354 6.8788,-16.93228 7.4079,-6.87874 17.4614,-6.87874 10.0536,0 16.9323,6.87874 6.8787,6.87874 6.8787,16.93228 v 144.98271 q 0,30.16064 13.7575,47.62206 13.7575,16.93229 44.4473,16.93229 28.5732,0 49.7386,-15.34489 21.1653,-15.87402 37.0393,-35.45197 v -158.7402 q 0,-10.05354 6.8788,-16.93228 7.4079,-6.87874 17.4614,-6.87874 10.0536,0 16.9323,6.87874 6.8787,6.87874 6.8787,16.93228 v 226.99848 q 0,10.05354 -6.8787,17.46142 -6.8787,6.87874 -16.9323,6.87874 -10.0535,0 -17.4614,-6.87874 -6.8788,-7.40788 -6.8788,-17.46142 v -21.6945 q -16.4031,17.99056 -39.685,33.33545 -23.2819,15.34488 -58.7339,15.34488 z"
             style="font-family:'Varela Round';-inkscape-font-specification:'Varela Round'"
             id="path358" />
          <path
             d="m 1664.4912,564.23135 q -64.5543,0 -101.0645,-36.51024 -35.9812,-37.03938 -35.9812,-103.71026 0,-35.98111 13.2284,-67.72915 13.2283,-32.27717 41.2724,-52.38426 28.0441,-20.10709 71.9623,-20.10709 40.7433,0 68.7874,19.04882 28.0441,18.51969 42.3307,48.68032 14.8158,30.16064 14.8158,65.61262 0,10.05354 -6.8788,16.93228 -6.3496,6.87874 -17.4614,6.87874 h -179.3764 q 4.233,35.45198 26.9858,57.14647 22.7528,21.16536 65.6126,21.16536 23.811,0 40.2142,-4.23307 16.4032,-4.7622 31.2189,-12.17008 4.2331,-2.11654 9.5244,-2.11654 8.4662,0 14.8158,5.82048 6.3496,5.82047 6.3496,14.81575 0,6.34961 -4.2331,11.64095 -3.7039,4.7622 -9.5244,7.93701 -17.4614,10.05354 -38.0977,16.93228 -20.107,6.34961 -54.5008,6.34961 z m -88.3653,-162.44413 h 156.0945 q -1.5874,-27.51497 -14.2866,-44.44725 -12.1701,-16.93229 -29.6315,-24.8693 -17.4614,-7.93701 -34.3937,-7.93701 -16.9323,0 -34.3937,7.93701 -17.4615,7.93701 -29.6315,24.8693 -12.1701,16.93228 -13.7575,44.44725 z"
             style="font-family:'Varela Round';-inkscape-font-specification:'Varela Round'"
             id="path360" />
          <path
             d="m 1930.6456,564.23135 q -29.1024,0 -52.9134,-6.34961 -23.2819,-6.3496 -43.389,-17.46142 -8.9953,-6.34961 -8.9953,-17.46142 0,-7.93701 5.8205,-14.28662 5.8204,-6.87874 14.8157,-6.87874 4.7622,0 9.5244,2.11654 14.2866,6.34961 31.2189,11.11181 17.4615,4.76221 40.7434,4.76221 30.6897,0 44.4472,-9.52441 14.2866,-10.05355 14.2866,-28.04411 0,-11.64094 -11.6409,-17.99055 -11.1118,-6.34961 -29.6315,-10.58268 -17.9906,-4.76221 -38.0977,-9.52441 -20.1071,-5.29134 -38.6268,-13.75748 -17.9905,-8.99528 -29.6315,-23.81103 -11.1118,-15.34489 -11.1118,-39.15592 0,-35.98111 25.9276,-59.79214 25.9276,-23.81102 77.2536,-23.81102 21.6944,0 40.7433,3.70393 19.5779,3.70394 35.9811,9.52441 7.4079,2.11654 11.1118,8.46615 4.2331,5.82047 4.2331,11.64095 0,8.46614 -6.3496,14.81575 -5.8205,6.3496 -14.8158,6.3496 -2.1165,0 -3.7039,0 -1.5874,-0.52913 -3.1748,-1.05826 -12.6993,-4.23308 -28.0441,-6.87875 -14.8158,-2.64567 -32.2772,-2.64567 -29.1024,0 -44.9764,10.58268 -15.874,10.58268 -15.874,26.4567 0,13.75749 11.1118,21.16536 11.6409,7.40788 29.6315,12.17008 18.5197,4.23307 38.6268,8.99528 20.6362,4.76221 38.6268,13.75748 18.5197,8.46615 29.6315,23.81103 11.6409,15.34489 11.6409,41.27245 0,32.27717 -25.9276,55.55907 -25.3984,22.75276 -76.1952,22.75276 z"
             style="font-family:'Varela Round';-inkscape-font-specification:'Varela Round'"
             id="path362" />
          <path
             d="m 2216.3777,564.23135 q -40.7433,0 -71.4331,-17.46142 -30.6897,-17.99056 -47.622,-49.20946 -16.4032,-31.74804 -16.4032,-73.54962 0,-41.80159 16.4032,-73.02049 16.9323,-31.74804 47.622,-49.20946 30.6898,-17.99055 71.4331,-17.99055 40.7433,0 70.904,17.99055 30.6897,17.46142 47.622,49.20946 16.9323,31.2189 16.9323,73.02049 0,41.80158 -16.9323,73.54962 -16.9323,31.2189 -47.622,49.20946 -30.1607,17.46142 -70.904,17.46142 z m 0,-43.91812 q 20.1071,0 40.2142,-9.52441 20.1071,-9.52441 33.3354,-30.68977 13.7575,-21.69449 13.7575,-56.61734 0,-34.92284 -13.7575,-56.0882 -13.2283,-21.16536 -33.3354,-30.16063 -20.1071,-9.52442 -40.2142,-9.52442 -20.1071,0 -40.7433,9.52442 -20.1071,8.99527 -33.3354,30.16063 -13.2284,21.16536 -13.2284,56.0882 0,34.92285 13.2284,56.61734 13.2283,21.16536 33.3354,30.68977 20.6362,9.52441 40.7433,9.52441 z"
             style="font-family:'Varela Round';-inkscape-font-specification:'Varela Round'"
             id="path364" />
        </g>
      </g>
    </g>
  </g>
</svg>
