<?xml version="1.0" encoding="UTF-8" standalone="no"?>
<svg
   version="1.1"
   id="svg2"
   viewBox="0 0 3450.8982 608.81098"
   height="17.181999cm"
   width="97.391998cm"
   inkscape:version="1.2.2 (b0a8486541, 2022-12-01)"
   sodipodi:docname="logo_no_path.svg"
   inkscape:export-filename="/home/diego/projects@uibcdf/MolSysMT/logos/logo.png"
   inkscape:export-xdpi="96"
   inkscape:export-ydpi="96"
   xmlns:inkscape="http://www.inkscape.org/namespaces/inkscape"
   xmlns:sodipodi="http://sodipodi.sourceforge.net/DTD/sodipodi-0.dtd"
   xmlns:xlink="http://www.w3.org/1999/xlink"
   xmlns="http://www.w3.org/2000/svg"
   xmlns:svg="http://www.w3.org/2000/svg"
   xmlns:rdf="http://www.w3.org/1999/02/22-rdf-syntax-ns#"
   xmlns:cc="http://creativecommons.org/ns#"
   xmlns:dc="http://purl.org/dc/elements/1.1/">
  <sodipodi:namedview
     pagecolor="#ffffff"
     bordercolor="#666666"
     borderopacity="1"
     objecttolerance="10"
     gridtolerance="10"
     guidetolerance="10"
     inkscape:pageopacity="0"
     inkscape:pageshadow="2"
     inkscape:window-width="1920"
     inkscape:window-height="1043"
     id="namedview40"
     showgrid="false"
     fit-margin-top="1.5"
     fit-margin-left="1.5"
     fit-margin-right="1.5"
     fit-margin-bottom="1.5"
     inkscape:zoom="0.47584683"
     inkscape:cx="1840.9285"
     inkscape:cy="234.3191"
     inkscape:window-x="1920"
     inkscape:window-y="0"
     inkscape:window-maximized="1"
     inkscape:current-layer="text3339"
     inkscape:pagecheckerboard="0"
     inkscape:document-units="cm"
     inkscape:showpageshadow="0"
     inkscape:deskcolor="#d1d1d1"
     showguides="true" />
  <defs
     id="defs4">
    <linearGradient
       inkscape:collect="always"
       id="linearGradient60818">
      <stop
         style="stop-color:#ffcc00;stop-opacity:1;"
         offset="0"
         id="stop60814" />
      <stop
         style="stop-color:#ffcc00;stop-opacity:0;"
         offset="1"
         id="stop60816" />
    </linearGradient>
    <linearGradient
       inkscape:collect="always"
       id="linearGradient57616">
      <stop
         style="stop-color:#ce5027;stop-opacity:1;"
         offset="0"
         id="stop57612" />
      <stop
         style="stop-color:#ce5027;stop-opacity:0;"
         offset="1"
         id="stop57614" />
    </linearGradient>
    <linearGradient
       inkscape:collect="always"
       id="linearGradient55606">
      <stop
         style="stop-color:#004082;stop-opacity:1;"
         offset="0"
         id="stop55602" />
      <stop
         style="stop-color:#004082;stop-opacity:0;"
         offset="1"
         id="stop55604" />
    </linearGradient>
    <rect
       x="222.60136"
       y="77.493637"
       width="3764.8684"
       height="624.05029"
       id="rect3341" />
    <linearGradient
       id="linearGradient5816"
       inkscape:swatch="solid">
      <stop
         id="stop5818"
         offset="0"
         style="stop-color:#0066cd;stop-opacity:1;" />
    </linearGradient>
    <linearGradient
       id="linearGradient5810"
       inkscape:swatch="solid">
      <stop
         id="stop5812"
         offset="0"
         style="stop-color:#0066cd;stop-opacity:1;" />
    </linearGradient>
    <linearGradient
       id="linearGradient5800-2"
       inkscape:swatch="solid">
      <stop
         style="stop-color:#004082;stop-opacity:0;"
         offset="0"
         id="stop5808" />
    </linearGradient>
    <linearGradient
       id="linearGradient5800">
      <stop
         id="stop5802"
         offset="0"
         style="stop-color:#004082;stop-opacity:0;" />
    </linearGradient>
    <linearGradient
       id="azul-8"
       inkscape:swatch="solid">
      <stop
         id="stop5796"
         offset="0"
         style="stop-color:#004082;stop-opacity:0;" />
    </linearGradient>
    <linearGradient
       id="linearGradient5788"
       inkscape:swatch="solid">
      <stop
         id="stop5790"
         offset="0"
         style="stop-color:#0066cd;stop-opacity:0;" />
    </linearGradient>
    <radialGradient
       inkscape:collect="always"
       xlink:href="#linearGradient55606"
       id="radialGradient55610"
       cx="70.203407"
       cy="751.98877"
       fx="70.203407"
       fy="751.98877"
       r="52.525475"
       gradientUnits="userSpaceOnUse"
       gradientTransform="matrix(1.4001391,0,0,1.4001391,-28.10906,-303.69471)" />
    <radialGradient
       inkscape:collect="always"
       xlink:href="#linearGradient57616"
       id="radialGradient57620"
       cx="1150.0629"
       cy="452.91687"
       fx="1150.0629"
       fy="452.91687"
       r="53.149605"
       gradientUnits="userSpaceOnUse"
       gradientTransform="matrix(1.4024753,0,0,1.4024753,-1542.7494,-33.148625)" />
    <radialGradient
       inkscape:collect="always"
       xlink:href="#linearGradient60818"
       id="radialGradient60820"
       cx="2447.1047"
       cy="440.59293"
       fx="2447.1047"
       fy="440.59293"
       r="52.525475"
       gradientUnits="userSpaceOnUse"
       gradientTransform="matrix(1.4028729,0,0,1.4028729,-3362.7916,-161.14302)" />
  </defs>
  <metadata
     id="metadata7">
    <rdf:RDF>
      <cc:Work
         rdf:about="">
        <dc:format>image/svg+xml</dc:format>
        <dc:type
           rdf:resource="http://purl.org/dc/dcmitype/StillImage" />
      </cc:Work>
    </rdf:RDF>
  </metadata>
  <g
     transform="translate(55.298645,-328.99084)"
     id="layer1">
    <g
       id="g70941">
      <g
         id="g71262">
        <circle
           r="73.66568"
           cy="602.05609"
           cx="70.185486"
           id="path4164-6-7-5-3-0"
           style="fill:url(#radialGradient57620);fill-opacity:1;stroke:none;stroke-width:1.73929;stroke-linejoin:miter;stroke-miterlimit:4;stroke-dasharray:none;stroke-opacity:1" />
        <circle
           r="73.686562"
           cy="456.95282"
           cx="70.185486"
           id="path4164-6-7-5-3-7"
           style="fill:url(#radialGradient60820);fill-opacity:1;stroke:none;stroke-width:1.75115;stroke-linejoin:miter;stroke-miterlimit:4;stroke-dasharray:none;stroke-opacity:1" />
        <ellipse
           cy="749.19415"
           cx="70.185486"
           id="path4164-6-7-5-5-92"
           style="fill:url(#radialGradient55610);fill-opacity:1;stroke:none;stroke-width:1.74774;stroke-linejoin:miter;stroke-miterlimit:4;stroke-dasharray:none;stroke-opacity:1"
           rx="73.523842"
           ry="73.542969" />
        <g
           aria-label="PyUnitWizard"
           transform="matrix(0.93749996,0,0,0.93749996,-64.17985,253.30905)"
           id="text3339"
           style="font-size:529.134px;line-height:125%;letter-spacing:0px;word-spacing:0px;white-space:pre;shape-inside:url(#rect3341);display:inline;stroke-width:1px">
          <path
             d="m 297.73859,561.58568 q -10.05355,0 -16.93229,-6.87874 -6.87874,-6.87874 -6.87874,-16.93229 V 213.94466 q 0,-10.05354 6.87874,-16.93229 6.87874,-7.40787 16.93229,-7.40787 h 120.64254 q 40.21418,0 67.20002,10.58268 27.51496,10.05354 43.38898,27.51496 16.40316,16.93229 23.2819,37.56852 7.40787,20.63622 7.40787,41.80158 0,21.16536 -7.40787,41.80158 -6.87874,20.63623 -23.2819,38.09765 -15.87402,16.93229 -43.38898,27.51497 -26.98584,10.05354 -67.20002,10.05354 h -96.30238 v 113.23467 q 0,10.05355 -7.40788,16.93229 -6.87874,6.87874 -16.93228,6.87874 z m 24.34016,-182.55122 h 91.54018 q 39.68504,0 60.8504,-10.58268 21.16536,-11.11181 29.10237,-27.51497 7.93701,-16.93228 7.93701,-33.86457 0,-17.46142 -7.93701,-33.86457 -7.93701,-16.40316 -29.10237,-26.98584 -21.16536,-11.11181 -60.8504,-11.11181 h -91.54018 z"
             style="font-family:'Varela Round';-inkscape-font-specification:'Varela Round'"
             id="path476" />
          <path
             d="m 680.30291,683.28649 q -9.52441,0 -16.40315,-6.87874 -6.34961,-6.87874 -6.34961,-16.40315 0,-4.76221 1.5874,-8.46614 l 34.39371,-88.36538 -99.47719,-242.34336 q -0.52913,-2.11653 -1.5874,-4.7622 -0.52913,-2.64567 -0.52913,-5.29134 0,-10.05355 6.87874,-16.93229 6.87874,-7.40787 16.93229,-7.40787 7.40787,0 13.22835,4.23307 6.3496,4.23307 8.99527,10.58268 l 81.48663,202.12917 83.07404,-201.07091 q 3.1748,-7.40787 8.46614,-11.64094 5.82048,-4.23307 13.75748,-4.23307 10.05355,0 16.93229,7.40787 6.87874,6.87874 6.87874,16.93229 0,4.7622 -1.5874,8.99528 L 702.52654,666.88334 q -3.17481,6.87874 -8.46615,11.64095 -5.29134,4.7622 -13.75748,4.7622 z"
             style="font-family:'Varela Round';-inkscape-font-specification:'Varela Round'"
             id="path478" />
          <path
             d="m 1058.6344,564.23135 q -26.4567,0 -53.4426,-8.46614 -26.9858,-8.46615 -49.20942,-25.92757 -22.22363,-17.99055 -35.98111,-44.97639 -13.22835,-27.51496 -13.22835,-64.55434 V 211.29899 q 0,-10.05354 6.87874,-16.93229 6.87874,-7.40787 16.93228,-7.40787 10.05355,0 16.93229,7.40787 7.40788,6.87875 7.40788,16.93229 v 210.59532 q 0,32.80631 14.81575,55.02993 15.34488,21.6945 39.15594,32.80631 23.811,10.58268 49.7386,10.58268 25.9275,0 49.7386,-10.58268 23.811,-11.11181 38.6267,-32.80631 15.3449,-22.22362 15.3449,-55.02993 V 211.29899 q 0,-10.05354 6.8788,-16.93229 6.8787,-7.40787 16.9323,-7.40787 10.0535,0 16.9322,7.40787 7.4079,6.87875 7.4079,16.93229 v 209.00792 q 0,37.03938 -13.7575,64.55434 -13.2283,26.98584 -35.4519,44.97639 -22.2237,17.46142 -49.2095,25.92757 -26.9858,8.46614 -53.4425,8.46614 z"
             style="font-family:'Varela Round';-inkscape-font-specification:'Varela Round'"
             id="path480" />
          <path
             d="m 1315.2642,561.58568 q -10.0535,0 -16.9323,-6.87874 -6.8787,-6.87874 -6.8787,-16.93229 V 310.77618 q 0,-10.58268 6.8787,-17.46142 6.8788,-6.87874 16.9323,-6.87874 10.0536,0 16.9323,6.87874 7.4079,6.87874 7.4079,17.46142 v 21.69449 q 16.9323,-18.51969 39.685,-33.33544 23.2819,-15.34488 58.7339,-15.34488 30.1606,0 51.326,14.28661 21.1654,13.75749 32.2772,37.56851 11.1118,23.2819 11.1118,51.85513 v 150.27405 q 0,10.05355 -7.4079,16.93229 -6.8787,6.87874 -16.9323,6.87874 -10.0535,0 -16.9323,-6.87874 -6.8787,-6.87874 -6.8787,-16.93229 V 392.79194 q 0,-30.16063 -13.7575,-47.09292 -13.2283,-17.46142 -44.4472,-17.46142 -28.5733,0 -49.7386,15.34488 -21.1654,15.34489 -37.0394,35.45198 v 158.74019 q 0,10.05355 -7.4079,16.93229 -6.8787,6.87874 -16.9323,6.87874 z"
             style="font-family:'Varela Round';-inkscape-font-specification:'Varela Round'"
             id="path482" />
          <path
             d="m 1636.4481,234.05175 q -11.1118,0 -19.0488,-7.93701 -7.937,-7.93701 -7.937,-19.04882 v -2.11654 q 0,-11.11181 7.937,-19.04882 7.937,-7.93701 19.0488,-7.93701 h 3.1748 q 11.1119,0 19.0489,7.93701 7.937,7.93701 7.937,19.04882 v 2.11654 q 0,11.11181 -7.937,19.04882 -7.937,7.93701 -19.0489,7.93701 z m 1.0583,327.53393 q -10.0535,0 -16.9323,-6.87874 -6.8787,-6.87874 -6.8787,-16.93229 V 310.77618 q 0,-10.58268 6.8787,-17.46142 6.8788,-6.87874 16.9323,-6.87874 10.5827,0 17.4614,6.87874 6.8788,6.87874 6.8788,17.46142 v 226.99847 q 0,10.05355 -6.8788,16.93229 -6.8787,6.87874 -17.4614,6.87874 z"
             style="font-family:'Varela Round';-inkscape-font-specification:'Varela Round'"
             id="path484" />
          <path
             d="m 1838.5776,564.23135 q -9.5244,0 -22.7528,-2.11654 -12.6992,-1.5874 -25.3984,-7.93701 -12.1701,-6.87874 -20.6362,-21.16535 -8.4662,-14.28662 -8.4662,-38.62678 V 330.35413 h -37.5685 q -10.0535,0 -10.0535,-10.05354 0,-5.29134 4.7622,-8.99528 l 71.9622,-70.37482 q 1.0583,-1.05826 3.1748,-2.64567 2.6457,-2.11653 5.8205,-2.11653 4.2331,0 6.8787,3.1748 3.1748,3.17481 3.1748,7.40788 v 42.33071 h 59.7922 q 8.9952,0 14.8157,5.82048 5.8205,5.82047 5.8205,14.81575 0,8.46614 -5.8205,14.81575 -5.8205,5.82047 -14.8157,5.82047 h -59.7922 v 159.79846 q 0,15.34489 5.8205,22.22363 5.8205,6.87874 13.7575,8.46614 8.4661,1.05827 14.8157,1.05827 12.6993,0 18.5197,-2.11653 6.3496,-2.64567 13.2284,-2.64567 7.4079,0 13.2283,5.29134 5.8205,5.29134 5.8205,13.75748 0,12.17008 -12.1701,18.51969 -9.5244,4.23307 -20.6362,6.87874 -10.5827,2.64567 -23.2819,2.64567 z"
             style="font-family:'Varela Round';-inkscape-font-specification:'Varela Round'"
             id="path486" />
          <path
             d="m 2057.1099,561.58568 q -10.0535,0 -18.5197,-5.82047 -8.4661,-5.82048 -12.6992,-17.99056 L 1922.1807,219.236 q -1.5874,-5.82047 -1.5874,-8.99528 -0.5291,-10.05354 6.3496,-16.40315 6.8788,-6.87874 16.9323,-6.87874 8.9953,0 15.3449,5.29134 6.3496,5.29134 8.4662,13.75748 l 88.8945,292.08195 89.4236,-291.02368 q 2.6457,-8.99528 10.0536,-14.28662 7.937,-5.82047 17.4614,-5.82047 9.5244,0 16.9323,5.82047 7.937,5.29134 10.5826,14.28662 l 89.4237,291.02368 88.8945,-292.08195 q 2.6457,-8.46614 8.9953,-13.75748 6.3496,-5.29134 14.8157,-5.29134 10.5827,0 17.4614,6.87874 6.8788,6.34961 5.8205,16.40315 0,3.17481 -1.5874,8.99528 l -103.7102,318.53865 q -4.2331,12.17008 -12.6993,17.99056 -8.4661,5.82047 -18.5196,5.82047 -10.5827,0 -19.578,-6.87874 -8.4661,-6.87874 -11.641,-16.93229 l -85.1905,-269.85832 -85.1906,269.85832 q -3.1748,10.05355 -12.1701,16.93229 -8.4661,6.87874 -19.0488,6.87874 z"
             style="font-family:'Varela Round';-inkscape-font-specification:'Varela Round'"
             id="path488" />
          <path
             d="m 2499.9948,234.05175 q -11.1118,0 -19.0488,-7.93701 -7.9371,-7.93701 -7.9371,-19.04882 v -2.11654 q 0,-11.11181 7.9371,-19.04882 7.937,-7.93701 19.0488,-7.93701 h 3.1748 q 11.1118,0 19.0488,7.93701 7.937,7.93701 7.937,19.04882 v 2.11654 q 0,11.11181 -7.937,19.04882 -7.937,7.93701 -19.0488,7.93701 z m 1.0582,327.53393 q -10.0535,0 -16.9322,-6.87874 -6.8788,-6.87874 -6.8788,-16.93229 V 310.77618 q 0,-10.58268 6.8788,-17.46142 6.8787,-6.87874 16.9322,-6.87874 10.5827,0 17.4615,6.87874 6.8787,6.87874 6.8787,17.46142 v 226.99847 q 0,10.05355 -6.8787,16.93229 -6.8788,6.87874 -17.4615,6.87874 z"
             style="font-family:'Varela Round';-inkscape-font-specification:'Varela Round'"
             id="path490" />
          <path
             d="m 2621.6959,558.94001 q -13.7575,0 -23.8111,-6.87874 -9.5244,-7.40788 -9.5244,-21.16536 0,-12.17008 8.4662,-21.69449 l 152.3906,-175.14335 h -133.8709 q -9.5245,0 -15.8741,-6.34961 -6.3496,-6.3496 -6.3496,-15.87401 0,-9.52442 6.3496,-15.87402 6.3496,-6.87875 15.8741,-6.87875 h 160.3276 q 13.7574,0 22.2236,8.46615 8.4661,7.93701 8.4661,21.69449 0,12.17008 -7.4079,21.16536 l -148.1575,173.55594 h 135.9875 q 9.5244,0 15.874,6.87874 6.8787,6.34961 6.8787,15.87402 0,9.52442 -6.8787,15.87402 -6.3496,6.34961 -15.874,6.34961 z"
             style="font-family:'Varela Round';-inkscape-font-specification:'Varela Round'"
             id="path492" />
          <path
             d="m 2941.2924,564.23135 q -22.7528,0 -42.8599,-9.52441 -19.5779,-9.52441 -31.748,-26.98583 -11.641,-17.99056 -11.641,-42.85986 0,-37.56851 29.6315,-61.37954 30.1607,-24.34016 92.0693,-24.34016 h 64.0253 v -4.23307 q 0,-35.45198 -17.4615,-50.26773 -17.4614,-15.34488 -53.4425,-15.34488 -22.2236,0 -39.1559,4.23307 -16.4032,3.70394 -31.2189,8.46614 -4.2331,1.05827 -6.8788,1.05827 -7.937,0 -13.7574,-5.82047 -5.8205,-5.82048 -5.8205,-14.28662 0,-14.28662 13.7575,-20.10709 18.5197,-7.93701 40.7433,-13.22835 22.7527,-5.82047 50.7968,-5.82047 38.6268,0 62.967,15.34488 24.3402,15.34489 35.9811,39.15591 11.6409,23.81103 11.6409,49.7386 v 149.74491 q 0,10.05355 -7.4078,16.93229 -6.8788,6.87874 -16.9323,6.87874 -10.0536,0 -16.9323,-6.87874 -6.8787,-6.87874 -6.8787,-16.93229 v -13.75748 q -14.2867,14.81575 -38.0977,27.51497 -23.811,12.69921 -61.3795,12.69921 z m 17.9905,-42.33072 q 24.8693,0 46.5638,-12.17008 21.6945,-12.17008 34.9229,-27.51497 v -44.44725 h -57.6756 q -37.0394,0 -58.7339,9.52441 -21.1654,9.52441 -21.1654,32.27717 0,16.93229 11.641,29.63151 12.1701,12.69921 44.4472,12.69921 z"
             style="font-family:'Varela Round';-inkscape-font-specification:'Varela Round'"
             id="path494" />
          <path
             d="m 3193.6895,561.58568 q -10.0535,0 -16.9323,-6.87874 -6.8787,-6.87874 -6.8787,-16.93229 V 310.77618 q 0,-10.05355 6.8787,-16.93229 6.8788,-7.40787 16.9323,-7.40787 10.0536,0 16.9323,7.40787 7.4079,6.87874 7.4079,16.93229 v 22.75276 q 14.2866,-19.04882 34.9228,-34.39371 20.6362,-15.34488 48.1512,-15.34488 h 2.6457 q 10.0535,0 16.4031,6.87874 6.8788,6.87874 6.8788,16.93228 0,10.05355 -6.8788,16.40316 -6.8787,6.3496 -17.4614,6.3496 h -2.6457 q -25.9275,0 -47.0929,13.22835 -21.1653,12.69922 -34.9228,33.33544 v 160.85673 q 0,10.05355 -7.4079,16.93229 -6.8787,6.87874 -16.9323,6.87874 z"
             style="font-family:'Varela Round';-inkscape-font-specification:'Varela Round'"
             id="path496" />
          <path
             d="m 3476.2469,564.23135 q -31.748,0 -61.3795,-16.40315 -29.1024,-16.40316 -48.1512,-47.62206 -18.5197,-31.2189 -18.5197,-76.19529 0,-44.97639 18.5197,-76.19529 19.0488,-31.21891 48.1512,-47.62206 29.6315,-16.40315 61.3795,-16.40315 28.0441,0 50.2678,10.58267 22.2236,10.58268 40.2142,29.63151 V 194.3667 q 0,-10.58268 6.8787,-17.46142 7.4079,-6.87874 17.4614,-6.87874 10.0536,0 16.9323,6.87874 6.8787,6.87874 6.8787,17.46142 v 343.40795 q 0,10.05355 -6.8787,16.93229 -6.8787,6.87874 -16.9323,6.87874 -10.0535,0 -17.4614,-6.87874 -6.8787,-6.87874 -6.8787,-16.93229 v -13.75748 q -17.9906,19.04882 -40.2142,29.6315 -22.2237,10.58268 -50.2678,10.58268 z m 6.8788,-44.97639 q 25.9276,0 47.0929,-11.11181 21.1654,-11.64095 36.5103,-28.57324 V 368.45178 q -15.3449,-16.93229 -36.5103,-28.0441 -21.1653,-11.64095 -47.0929,-11.64095 -37.5685,0 -62.4378,24.34017 -24.3402,23.81102 -24.3402,70.90395 0,46.56379 24.3402,70.90395 24.8693,24.34016 62.4378,24.34016 z"
             style="font-family:'Varela Round';-inkscape-font-specification:'Varela Round'"
             id="path498" />
        </g>
      </g>
    </g>
  </g>
</svg>
